<svg xmlns="http://www.w3.org/2000/svg" viewBox="0 0 240 96" role="img" aria-label="Industrial chains category">
  <g fill="none" stroke-linecap="round" stroke-linejoin="round">
    <path d="M58 58c-12 0-22-10-22-22s10-22 22-22h26c12 0 22 10 22 22s-10 22-22 22H72" stroke="#0f5cc0" stroke-width="9"/>
    <path d="M132 38h-16c-12 0-22 10-22 22s10 22 22 22h26c12 0 22-10 22-22s-10-22-22-22" stroke="#0f203a" stroke-width="9"/>
    <path d="M166 35h18c11 0 20 9 20 20s-9 20-20 20h-17" stroke="#f28c28" stroke-width="9"/>
  </g>
  <path d="M72 58h60" stroke="#87b8ee" stroke-width="4" stroke-linecap="round"/>
</svg>
