<svg width="1200" height="900" viewBox="0 0 1200 900" fill="none" xmlns="http://www.w3.org/2000/svg">
  <rect width="1200" height="900" rx="56" fill="#F7FAFE"/>
  <ellipse cx="600" cy="748" rx="360" ry="58" fill="#D7E4F1"/>
  <rect x="350" y="139" width="500" height="578" rx="44" fill="#0F203A"/>
  <rect x="390" y="187" width="420" height="482" rx="28" fill="#FFFFFF"/>
  <rect x="430" y="235" width="340" height="86" rx="18" fill="#E8F0F8"/>
  <rect x="430" y="362" width="118" height="190" rx="20" fill="#0F5CC0"/>
  <rect x="582" y="362" width="188" height="58" rx="16" fill="#F28C28"/>
  <rect x="582" y="457" width="188" height="58" rx="16" fill="#E8F0F8"/>
  <rect x="582" y="552" width="188" height="58" rx="16" fill="#E8F0F8"/>
  <path d="M456 398H522M456 446H522M456 494H522" stroke="#FFFFFF" stroke-width="12" stroke-linecap="round"/>
  <path d="M458 278H742M610 390H742M610 486H742M610 581H742" stroke="#0F203A" stroke-width="9" stroke-linecap="round" opacity="0.45"/>
  <path d="M308 300H350M308 397H350M308 494H350M850 300H892M850 397H892M850 494H892" stroke="#7E95AC" stroke-width="18" stroke-linecap="round"/>
</svg>
