<?xml version="1.0" encoding="utf-8"?>
<!-- Generator: Adobe Illustrator 19.2.1, SVG Export Plug-In . SVG Version: 6.00 Build 0)  -->
<svg version="1.1" id="Ebene_1" xmlns="http://www.w3.org/2000/svg" xmlns:xlink="http://www.w3.org/1999/xlink" x="0px" y="0px"
	 viewBox="0 0 533.5 115.6" style="enable-background:new 0 0 533.5 115.6;" xml:space="preserve">
<style type="text/css">
	.st0{fill:#020204;}
</style>
<g>
	<path class="st0" d="M87.9,57.7c4.7-2.1,8-7.9,8-13.8c0-8.7-6.8-15.7-16.6-15.7c-0.3,0-51.9,0-51.9,0l0,13.4c0,0,44.1,0,44.1,0
		c2.9,0.1,5.2,2.4,5.2,5.3c0,2.9-2.4,5.3-5.3,5.3c-0.1,0-44,0-44,0l0,37.2c0,0,53.8,0,54.1,0c9.4,0,16.5-7.4,16.5-16.5
		C98.1,66.1,93.7,59.9,87.9,57.7z M73.2,76.7c-0.1,0-2.1,0-2.1,0l-25.7,0V65.3c0,0,27,0,27.1,0c0.4,0,0.9,0,1.1,0.1
		c2.8,0.4,4.9,2.8,4.9,5.6C78.5,74,76.2,76.5,73.2,76.7z"/>
	<polygon class="st0" points="133.4,28.2 105.2,89.5 124.3,89.5 144.2,43 158.2,75.9 144.2,75.9 144.2,89.5 183.2,89.5 155,28.2 	
		"/>
	<polygon class="st0" points="195.8,28.2 195.8,89.5 241.1,89.5 241.1,75.8 213.8,75.8 213.8,28.2 	"/>
	<polygon class="st0" points="256.6,28.2 256.6,89.5 302,89.5 302,75.8 274.6,75.8 274.6,28.2 	"/>
	<g>
		<path class="st0" d="M314.7,28.2v47.3c0,7.8,6.5,13.9,14.8,13.9h32.2c8.3,0,14.8-6.1,14.8-13.9V28.2h-18v45.3c0,1.3-1,2.3-2.3,2.3
			H335c-1.3,0-2.3-1-2.3-2.3V28.2H314.7z"/>
	</g>
	<polygon class="st0" points="394,54.9 394,89.5 412,89.5 412,67.8 439.4,67.8 439.4,54.9 	"/>
	<rect x="394" y="28.2" class="st0" width="49.2" height="13.9"/>
	<polygon class="st0" points="457.7,54.9 457.7,89.5 475.7,89.5 475.7,67.8 504,67.8 504,54.9 	"/>
	<rect x="457.7" y="28.2" class="st0" width="49.2" height="13.9"/>
</g>
</svg>
