<?xml version="1.0" encoding="utf-8"?>
<!-- Generator: Adobe Illustrator 25.2.1, SVG Export Plug-In . SVG Version: 6.00 Build 0)  -->
<svg version="1.1" id="Logobasis_mit_Balken" xmlns="http://www.w3.org/2000/svg" xmlns:xlink="http://www.w3.org/1999/xlink"
	 x="0px" y="0px" viewBox="0 0 1103.8 180" style="enable-background:new 0 0 1103.8 180;" xml:space="preserve">
<style type="text/css">
	.st0{fill:#C5C5C5;}
	.st1{fill:#007FC5;}
	.st2{fill-rule:evenodd;clip-rule:evenodd;fill:#007FC5;}
</style>
<polygon class="st0" points="0,0 1103.8,0 1103.8,22.9 0,22.9 "/>
<path class="st1" d="M345,43.1h11.5c13.2,0,25.3,16.2,49.1,41.8c44.6,47.9,46.6,50.4,49.6,50.6V43.1h36.3v117.1
	c0.5,11-5.1,19.7-14.3,19.7c-7.7,0-8.3-0.1-11.8,0C451,180.4,401,122,401,122c-15.8-17.1-30.5-33.3-34.8-33.5l-0.1,91.4h-36.6V65.1
	C329.4,54.8,335.3,43.1,345,43.1L345,43.1z"/>
<polygon class="st1" points="704.8,43.1 739.3,43.1 739.3,179.9 704.8,179.9 "/>
<path class="st1" d="M204.3,43.1H309v25.7c0,0-89,0-89.1,0s-8.3-0.4-7.8,9.6c0.3,5.5,0.1,8.7,0,14.2c0,2.4-0.8,6.4,2.3,6.4H309v24
	h-94.6c-1.5,0-2.3,0.6-2.3,2.8V146c0,5.6,6.2,9.2,9.2,9.2H309V180H201.5c-19,0-27.6-14.6-27.6-30.8V71.1
	C174,51,189.7,43.1,204.3,43.1L204.3,43.1z"/>
<path class="st1" d="M531.2,43.1h11.5c13.2,0,25.3,16.2,49.1,41.8c44.6,47.9,46.6,50.4,49.6,50.6V43.1h36.3v117.1
	c0.5,11-5.1,19.7-14.3,19.7c-7.7,0-8.3-0.1-11.8,0c-14.4,0.5-64.4-57.9-64.4-57.9c-15.8-17.1-30.5-33.3-34.8-33.5v91.4h-36.7V65.1
	C515.6,54.8,521.5,43.1,531.2,43.1L531.2,43.1z"/>
<path class="st1" d="M776.6,43.1h11.5c13.2,0,25.3,16.2,49.1,41.8c44.6,47.9,46.6,50.4,49.6,50.6V43.1h36.3v117.1
	c0.5,11-5.1,19.7-14.3,19.7c-7.7,0-8.3-0.1-11.8,0c-14.5,0.5-64.5-57.9-64.5-57.9c-15.8-17.1-30.7-33.3-35-33.5v91.4h-36.6V65.1
	C760.9,54.8,766.8,43.1,776.6,43.1L776.6,43.1z"/>
<path class="st2" d="M35.4,123.9h70.8c4.6,0,9.1,3.3,9.1,10v11c0,5.3-4.5,9.6-9.2,9.6H35.4L35.4,123.9L35.4,123.9z M35.3,68.5h70.8
	c4.7,0,9.1,3.3,9.1,10v11c0,5.3-4.5,9.6-9.2,9.6H35.3L35.3,68.5L35.3,68.5z M126.2,43c18.8,0.5,28,11.9,28,27.1v16.5
	c0,14.3-14.7,24.3-14.7,24.3s15.2,8,15.2,20.2v20.7c0,19-13.9,28.1-30.3,28.1H0V43C113.4,43,83.4,43.1,126.2,43L126.2,43z"/>
<path class="st1" d="M967,43.1h136.8v25.7h-107c-11.5,0-14.7,7.4-14.7,14.5v61.2c0,8.4,4.7,10.6,13.8,10.6h70.7v-30.4
	c-0.6-0.5,0.2-1.3-2.1-1.5c-12.7,0-45.7,0-48.8,0c-3.2,0-4.7-2.1-4.7-4.3s0-15.8,0-15.8c0-2.8,1.9-4.1,4.6-4.1h88.2v80.8H966.5
	c-13.6,0-22-11.8-22-24c0,0-0.1-79.2,0-91.6C944.7,48.7,961.2,43.1,967,43.1L967,43.1z"/>
</svg>
