<svg version="1.1" id="Layer_1" xmlns="http://www.w3.org/2000/svg" xmlns:xlink="http://www.w3.org/1999/xlink" x="0px" y="0px" viewBox="0 0 347.9 66" style="enable-background:new 0 0 347.9 66;" xml:space="preserve">
 <style type="text/css">
  .st0{fill:#043F8D;}
 </style>
 <g>
  <path class="st0" d="M9.6,30.4C10.9,20.6,19.2,13,29.4,13c10.2,0,18.5,7.6,19.8,17.4h18.2c6.4,0,6.7-6.5,6.7-6.5l0.1-17.1
		c0,0-0.1-6.9-7.8-6.9H0v30.4h9.2">
  </path>
  <g>
   <path class="st0" d="M66.5,35.3H49.2C48.1,45.2,39.7,53,29.4,53c-10.3,0-18.7-7.8-19.9-17.7H0v30.4h67.4c6.4,0,6.7-6.5,6.7-6.5
			l0.1-17.1C74.2,42.1,74.1,35.3,66.5,35.3">
   </path>
  </g>
  <path class="st0" d="M29.4,17.9c-8.3,0-15.1,6.8-15.1,15.1c0,8.3,6.8,15.1,15.1,15.1c8.3,0,15.1-6.8,15.1-15.1
		C44.5,24.7,37.7,17.9,29.4,17.9">
  </path>
  <g>
   <path class="st0" d="M135.6,29.9c0,0,8.7-2.3,8.7-13.2c0-7.1-6.2-16.6-17.2-16.6h-27v65.7h29.6c0,0,18.4,0.7,18.4-18.7
			C148.1,34.2,135.6,29.9,135.6,29.9 M109.8,9.9H125c9.3,0,9.3,8.5,9.3,8.5s-0.1,9.1-9.8,9.1h-14.8L109.8,9.9z M126.9,55.8h-17.1
			V36.1h17.7c10.7,0,10.7,9.9,10.7,9.9S138.1,55.8,126.9,55.8">
   </path>
   <path class="st0" d="M269.4,0.1c-5.2,0-21.8,0-21.8,0l0,56.1l-2.6,0L223.1,0.1h-10.9l-23.3,59l-13-18.3c0,0,16.4-2,16.4-19.8
			c0-12.4-8.7-21-22.2-20.9c-9.5,0.1-21.6,0-21.6,0l0.1,65.8h10.1V34.7l22.6,31.1h16.1l20.2-51.3l16.3,41.7h-28l-4,9.6
			c0,0,65.5,0,70.3,0c15.2-0.1,30.2-12.6,30.6-32.9C303.2,16.7,290.5-0.1,269.4,0.1 M158.9,33.7l-0.1-23.8H171
			c5.1,0,11.5,3.4,11.5,11.6c0,12-10.8,12.2-14.7,12.2H158.9z M271.1,56h-13.6l0-46.1c0,0,3.7,0,13.8,0c10.1,0,21.6,9.1,21.6,23.2
			C292.8,47.3,280.3,56,271.1,56">
   </path>
   <polyline class="st0" points="291.7,0 314.3,44.4 314.3,65.8 324.6,65.8 324.6,44.4 347.9,0 336.5,0 319.8,32.7 303.3,0 		">
   </polyline>
  </g>
  <path class="st0" d="M334.6,58.4h1.3c1.1,0,1.7,0.1,1.7,1c0,0.9-0.6,1-1.5,1h-1.5 M333.6,63.6h1.1v-2.4h1.2l1.7,2.4l1.2,0l-1.7-2.4
		c1.3-0.3,1.6-1,1.6-1.8c0-1.1-1.1-1.7-2.1-1.7h-2.8V63.6z">
  </path>
  <path class="st0" d="M336,55.5c-2.9,0-5.3,2.4-5.3,5.3c0,2.9,2.4,5.3,5.3,5.3c2.9,0,5.3-2.4,5.3-5.3
		C341.2,57.8,338.9,55.5,336,55.5 M336,65.3c-2.5,0-4.5-2-4.5-4.5c0-2.5,2-4.5,4.5-4.5c2.5,0,4.5,2,4.5,4.5
		C340.5,63.2,338.5,65.3,336,65.3">
  </path>
 </g>
</svg>