<svg xmlns="http://www.w3.org/2000/svg" id="Ebene_1" viewBox="0 0 420.94 114"><defs><style>      .st0 {        fill: #706f6f;      }      .st1 {        fill: #e20240;      }    </style></defs><path class="st1" d="M160.68,88.9c0,1.55-.51,2.82-1.54,3.8-1.02.98-2.32,1.47-3.88,1.47h-19.32c-1.56,0-2.85-.49-3.83-1.47-.99-.98-1.49-2.25-1.49-3.8V25.05c0-1.55.5-2.82,1.49-3.8.99-.98,2.27-1.47,3.83-1.47h19.32c1.57,0,2.86.49,3.88,1.47,1.02.98,1.54,2.25,1.54,3.8v17.31h-6.71v-16.74h-16.68v62.71h16.68v-18.3h6.71v18.87Z"></path><path class="st0" d="M183.23,61.91h-11.14v27.86h11.14v-27.86ZM188.29,89.92c0,2.84-1.43,4.26-4.29,4.26h-12.7c-2.84,0-4.26-1.42-4.26-4.26v-28.16c0-2.84,1.42-4.25,4.26-4.25h12.7c2.86,0,4.29,1.42,4.29,4.25v28.16Z"></path><path class="st0" d="M183.23,61.91h-11.14v27.86h11.14v-27.86ZM188.29,89.92c0,2.84-1.43,4.26-4.29,4.26h-12.7c-2.84,0-4.26-1.42-4.26-4.26v-28.16c0-2.84,1.42-4.25,4.26-4.25h12.7c2.86,0,4.29,1.42,4.29,4.25v28.16Z"></path><path class="st0" d="M209.4,89.39v-12.97h-11.29v13.19l11.29-.23ZM214.31,93.96h-4.98v-1.02c-2.01.28-4.01.54-6.01.79-2.49.3-4.47.45-5.97.45-2.76,0-4.14-1.36-4.14-4.07v-13.38c0-2.82,1.43-4.22,4.29-4.22h11.9v-11.04h-10.87v6.26h-4.9v-6.18c0-2.84,1.42-4.26,4.26-4.26h12.17c2.84,0,4.26,1.42,4.26,4.26v32.42Z"></path><path class="st0" d="M209.4,89.39v-12.97h-11.29v13.19l11.29-.23ZM214.31,93.96h-4.98v-1.02c-2.01.28-4.01.54-6.01.79-2.49.3-4.47.45-5.97.45-2.76,0-4.14-1.36-4.14-4.07v-13.38c0-2.82,1.43-4.22,4.29-4.22h11.9v-11.04h-10.87v6.26h-4.9v-6.18c0-2.84,1.42-4.26,4.26-4.26h12.17c2.84,0,4.26,1.42,4.26,4.26v32.42Z"></path><rect class="st0" x="219.75" y="35.43" width="5.3" height="58.75"></rect><rect class="st0" x="219.75" y="35.43" width="5.3" height="58.75"></rect><path class="st1" d="M275.63,88.9c0,1.55-.51,2.82-1.53,3.8-1.02.98-2.32,1.47-3.88,1.47h-19.32c-1.57,0-2.84-.49-3.84-1.47-.99-.98-1.48-2.25-1.48-3.8V25.05c0-1.55.5-2.82,1.48-3.8.99-.98,2.27-1.47,3.84-1.47h19.32c1.56,0,2.86.49,3.88,1.47,1.02.98,1.53,2.25,1.53,3.8v17.31h-6.71v-16.74h-16.68v62.71h16.68v-18.3h6.71v18.87Z"></path><path class="st0" d="M298.18,61.91h-11.14v27.86h11.14v-27.86ZM303.23,89.92c0,2.84-1.43,4.26-4.29,4.26h-12.7c-2.83,0-4.26-1.42-4.26-4.26v-28.16c0-2.84,1.43-4.25,4.26-4.25h12.7c2.86,0,4.29,1.42,4.29,4.25v28.16Z"></path><path class="st0" d="M298.18,61.91h-11.14v27.86h11.14v-27.86ZM303.23,89.92c0,2.84-1.43,4.26-4.29,4.26h-12.7c-2.83,0-4.26-1.42-4.26-4.26v-28.16c0-2.84,1.43-4.25,4.26-4.25h12.7c2.86,0,4.29,1.42,4.29,4.25v28.16Z"></path><path class="st0" d="M329.59,94.18h-5.06v-32.19l-11.13.3v31.89h-5.06v-36.68h5.06v1.02c1.97-.25,3.96-.52,5.96-.8,2.44-.3,4.44-.45,6.01-.45,2.81,0,4.22,1.37,4.22,4.11v32.8Z"></path><path class="st0" d="M329.59,94.18h-5.06v-32.19l-11.13.3v31.89h-5.06v-36.68h5.06v1.02c1.97-.25,3.96-.52,5.96-.8,2.44-.3,4.44-.45,6.01-.45,2.81,0,4.22,1.37,4.22,4.11v32.8Z"></path><path class="st0" d="M349.36,94.18h-7.23c-2.85,0-4.28-1.42-4.28-4.25v-27.93h-4.48v-4.4h4.48v-11.39h5.01v11.39h6.5v4.4h-6.5v27.78h6.5v4.4Z"></path><path class="st0" d="M349.36,94.18h-7.23c-2.85,0-4.28-1.42-4.28-4.25v-27.93h-4.48v-4.4h4.48v-11.39h5.01v11.39h6.5v4.4h-6.5v27.78h6.5v4.4Z"></path><path class="st0" d="M372.87,69.56h-4.99v-7.58l-9.33.3v31.89h-5.07v-36.68h5.07v1.02c1.67-.25,3.37-.52,5.07-.8,2.03-.3,3.72-.45,5.07-.45,2.79,0,4.19,1.37,4.19,4.11v8.18Z"></path><path class="st0" d="M372.87,69.56h-4.99v-7.58l-9.33.3v31.89h-5.07v-36.68h5.07v1.02c1.67-.25,3.37-.52,5.07-.8,2.03-.3,3.72-.45,5.07-.45,2.79,0,4.19,1.37,4.19,4.11v8.18Z"></path><path class="st0" d="M393.28,61.91h-11.14v27.86h11.14v-27.86ZM398.34,89.92c0,2.84-1.44,4.26-4.3,4.26h-12.7c-2.84,0-4.26-1.42-4.26-4.26v-28.16c0-2.84,1.42-4.25,4.26-4.25h12.7c2.86,0,4.3,1.42,4.3,4.25v28.16Z"></path><path class="st0" d="M393.28,61.91h-11.14v27.86h11.14v-27.86ZM398.34,89.92c0,2.84-1.44,4.26-4.3,4.26h-12.7c-2.84,0-4.26-1.42-4.26-4.26v-28.16c0-2.84,1.42-4.25,4.26-4.25h12.7c2.86,0,4.3,1.42,4.3,4.25v28.16Z"></path><rect class="st0" x="403.74" y="35.43" width="5.29" height="58.75"></rect><rect class="st0" x="403.74" y="35.43" width="5.29" height="58.75"></rect><path class="st0" d="M100.43,19.77H18.33s-6.42,0-6.42,6.42v61.58s0,6.41,6.42,6.41h82.1s6.41,0,6.41-6.41V26.19s0-6.42-6.41-6.42ZM98.16,54.4s-2.61,8.61-7.15,17.89c-4.53,9.27-8.8,15.36-13.95,15.42-5.15.07-10.41-7.18-15.12-19.07-4.71-11.89-12.23-39.76-20.55-39.71-7.28.03-18.21,30.2-18.21,30.2,0,0-.31,1.24-1.65.89-1.34-.34-.96-1.72-.96-1.72l.53-1.51s4.19-11.27,8.5-19.15c4.31-7.88,8.43-11.36,11.73-11.45,3.3-.09,7.7,2.88,11.68,11.27,3.98,8.38,8.38,21.48,11.41,30,3.02,8.52,8.38,17.36,12.83,17.5,4.44.14,10.9-12.05,14.61-21.58,3.71-9.53,3.72-9.79,3.72-9.79,0,0,.32-1.29,1.75-.84,1.28.4.82,1.65.82,1.65Z"></path></svg>