<?xml version="1.0" encoding="UTF-8" standalone="no"?>
<!-- Created with Inkscape (http://www.inkscape.org/) -->

<svg
   xmlns:dc="http://purl.org/dc/elements/1.1/"
   xmlns:cc="http://creativecommons.org/ns#"
   xmlns:rdf="http://www.w3.org/1999/02/22-rdf-syntax-ns#"
   xmlns:svg="http://www.w3.org/2000/svg"
   xmlns="http://www.w3.org/2000/svg"
   xmlns:sodipodi="http://sodipodi.sourceforge.net/DTD/sodipodi-0.dtd"
   xmlns:inkscape="http://www.inkscape.org/namespaces/inkscape"
   width="290.06009"
   height="69.810852"
   viewBox="0 0 76.745063 18.470788"
   version="1.1"
   id="svg55283"
   inkscape:version="0.92.0 r15299"
   sodipodi:docname="donaldson.svg">
  <defs
     id="defs55277" />
  <sodipodi:namedview
     id="base"
     pagecolor="#ffffff"
     bordercolor="#666666"
     borderopacity="1.0"
     inkscape:pageopacity="0.0"
     inkscape:pageshadow="2"
     inkscape:zoom="3.1139336"
     inkscape:cx="144.03005"
     inkscape:cy="33.905424"
     inkscape:document-units="mm"
     inkscape:current-layer="layer1"
     showgrid="false"
     fit-margin-top="0"
     fit-margin-left="0"
     fit-margin-right="0"
     fit-margin-bottom="0"
     units="px"
     inkscape:window-width="1280"
     inkscape:window-height="744"
     inkscape:window-x="-4"
     inkscape:window-y="-4"
     inkscape:window-maximized="1" />
  <metadata
     id="metadata55280">
    <rdf:RDF>
      <cc:Work
         rdf:about="">
        <dc:format>image/svg+xml</dc:format>
        <dc:type
           rdf:resource="http://purl.org/dc/dcmitype/StillImage" />
        <dc:title></dc:title>
      </cc:Work>
    </rdf:RDF>
  </metadata>
  <g
     inkscape:label="Layer 1"
     inkscape:groupmode="layer"
     id="layer1"
     transform="translate(-54.11824,-175.61908)">
    <g
       id="g55370"
       transform="translate(0.26458262,-0.2645744)">
      <path
         d="m 129.58694,184.69295 c -0.4166,0 -0.7521,0.33726 -0.7521,0.74859 0,0.41381 0.3355,0.75213 0.7521,0.75213 0.411,0 0.7472,-0.33832 0.7472,-0.75213 0,-0.41133 -0.3362,-0.74859 -0.7472,-0.74859 m 0,1.35855 c -0.3404,0 -0.6103,-0.27023 -0.6103,-0.60996 0,-0.33655 0.2699,-0.60677 0.6103,-0.60677 0.3351,0 0.6068,0.27022 0.6068,0.60677 0,0.33973 -0.2717,0.60996 -0.6068,0.60996 m 0.3948,-0.76236 c 0,-0.0836 -0.022,-0.16298 -0.094,-0.20955 -0.06,-0.0356 -0.1506,-0.0374 -0.2198,-0.0374 h -0.3915 v 0.80751 h 0.1587 v -0.34114 h 0.158 l 0.1807,0.34114 h 0.1848 l -0.1972,-0.34114 c 0.1447,-0.01 0.2202,-0.0702 0.2202,-0.21943 m -0.3091,0.0984 h -0.2374 v -0.23001 h 0.1958 c 0.078,0 0.194,0 0.194,0.1076 0,0.1023 -0.063,0.12417 -0.1524,0.12241 M 79.13114,177.002 c -0.9564,0 -1.6951,0.0254 -2.238,0.0254 -0.5038,0 -1.0213,0 -1.5261,-0.0254 v 0.3362 c 0.5831,0.013 1.1902,-0.0649 1.1902,1.09961 v 6.27239 c -0.038,0.87982 -0.4134,0.90522 -1.1902,0.98283 v 0.33655 c 0.5831,-0.012 1.1518,-0.0258 1.7335,-0.0258 0.6082,0 1.216,0.0258 1.8754,0.0258 4.579,0 5.3287,-3.2198 5.3287,-4.50109 0,-2.28882 -1.8239,-4.52649 -5.1735,-4.52649 m 0.039,8.61342 c -0.6336,0 -1.3451,-0.11535 -1.3451,-1.11195 v -7.0358 c 0.2332,-0.0134 0.478,-0.0519 1.0089,-0.0519 2.497299,0 4.048101,1.7459 4.048101,4.16454 0,1.92687 -0.918601,4.03507 -3.711901,4.03507 m 8.390499,-5.49627 c -1.7336,0 -2.963,1.40934 -2.963,3.07834 0,1.83585 1.410103,3.02612 3.130601,3.02612 1.656201,0 2.974199,-1.4097 2.974199,-3.07798 0,-1.83656 -1.344398,-3.02648 -3.1418,-3.02648 m 0.154102,5.76721 c -1.357101,0 -1.9265,-1.7586 -1.9265,-2.8187 0,-1.1116 0.504499,-2.61232 1.785098,-2.61232 1.370902,0 1.940603,1.7586 1.940603,2.81905 0,1.11196 -0.505201,2.61197 -1.799201,2.61197 m 8.295298,-0.62019 v -3.33657 c 0,-1.00894 -0.388098,-1.81045 -1.488098,-1.81045 -0.8664,0 -1.499302,0.4392 -2.236902,0.96978 v -0.84067 c 0,-0.10336 -0.039,-0.12911 -0.078,-0.12911 -0.620598,0.27093 -1.150799,0.4392 -1.7078,0.62053 v 0.24554 c 0.608502,0.24623 0.7507,0.3757 0.7507,0.85442 v 3.42653 c 0,0.42686 -0.2593,0.42686 -0.620898,0.42686 h -0.2335 v 0.33655 c 0.467,-0.012 0.931598,-0.0258 1.397699,-0.0258 0.466,0 0.917501,0.0258 1.370499,0.0258 v -0.33655 h -0.233497 c -0.360903,0 -0.645602,0 -0.645602,-0.42686 v -3.82799 c 0.426101,-0.28469 1.0858,-0.62053 1.500701,-0.62053 0.7362,0 1.1889,0.36159 1.1889,1.09925 v 3.34927 c 0,0.42686 -0.2583,0.42686 -0.620901,0.42686 h -0.232201 v 0.33655 c 0.465,-0.012 0.931701,-0.0258 1.395601,-0.0258 0.4661,0 0.919001,0.0258 1.372002,0.0258 v -0.33655 h -0.233601 c -0.3615,0 -0.645501,0 -0.645501,-0.42686 m 5.8614,0.25894 c -0.2847,0 -0.4671,-0.20637 -0.4671,-0.7373 v -3.58246 c 0,-0.71155 -0.9952,-1.0862 -1.5769,-1.0862 -0.490699,0 -0.710901,0.18097 -1.1645,0.4131 -0.905301,0.46637 -1.486699,0.78916 -1.486699,1.47496 0,0.0907 0.038,0.25788 0.2325,0.25788 0.3112,0 0.7243,-0.18062 0.7243,-0.54257 0.02601,-0.58173 0.414099,-0.90487 0.983498,-0.90487 0.828,0 1.253401,0.3877 1.253401,1.11195 v 0.85372 c -2.7929,0.95674 -3.3228,1.15147 -3.375298,2.18546 0,0.68545 0.568999,1.25483 1.396598,1.25483 0.8022,0 1.3843,-0.40005 1.9922,-0.95744 0.026,0.46602 0.2726,0.95744 0.8022,0.95744 0.5175,0 0.9186,-0.3623 1.2802,-0.6985 l -0.1164,-0.21978 c -0.1171,0.14147 -0.3101,0.21978 -0.478,0.21978 m -1.5015,-0.65969 c -0.425401,0.37465 -0.814499,0.75 -1.422401,0.75 -0.503698,0 -0.918199,-0.42615 -0.918199,-0.93098 0,-0.96978 1.6813,-1.26682 2.3406,-1.52611 z m 4.0432,0.40075 v -8.93692 c 0,-0.10301 -0.026,-0.18097 -0.1037,-0.18097 -0.038,0 -0.1411,0.0646 -0.284,0.14182 -0.2709,0.15522 -0.8145,0.3877 -1.3317,0.55633 v 0.20672 c 0.49,0.14182 0.6854,0.16899 0.6854,1.00965 v 7.20337 c 0,0.42686 -0.2585,0.42686 -0.6216,0.42686 h -0.2462 v 0.33655 c 0.4794,-0.012 0.9447,-0.0258 1.4101,-0.0258 0.466,0 0.9197,0.0258 1.3589,0.0258 v -0.33655 h -0.2198 c -0.3627,0 -0.6474,0 -0.6474,-0.42686 m 6.2918,-0.34925 v -8.58767 c 0,-0.10301 -0.026,-0.18097 -0.104,-0.18097 -0.038,0 -0.1412,0.0646 -0.2833,0.14182 -0.272,0.15522 -0.8146,0.3877 -1.3328,0.55633 v 0.20672 c 0.4925,0.14182 0.6858,0.16899 0.6858,1.00965 v 2.28883 c -0.3743,-0.15523 -0.8026,-0.23248 -1.2164,-0.23248 -1.7847,0 -3.1944,1.55187 -3.1944,3.29847 0,1.4478 0.8537,2.80599 2.4059,2.80599 0.7885,0 1.5128,-0.46531 1.9788,-0.94438 h 0.026 v 0.59513 c 0,0.15522 0.013,0.34925 0.1414,0.34925 0.079,0 0.4146,-0.12947 0.8153,-0.25823 0.375,-0.11677 0.7243,-0.22049 0.919,-0.25894 h 0.012 v -0.25964 h -0.2201 c -0.5031,0 -0.6333,0 -0.6333,-0.52988 m -1.03431,-0.23248 c 0,0.47802 -0.8661,0.76236 -1.2541,0.76236 -1.178,0 -2.04439,-1.06045 -2.04439,-2.48285 0,-1.7452 1.00899,-2.4317 1.92719,-2.4317 0.5687,0 1.3713,0.23283 1.3713,1.19027 z m 3.2085,-3.29847 c 0,-0.55562 0.49071,-0.85372 1.0079,-0.85372 0.8272,0 1.2806,0.46637 1.4097,1.28058 h 0.2974 l -0.09,-1.31903 c -0.50419,-0.25859 -1.06009,-0.37465 -1.47499,-0.37465 -1.4224,0 -2.0045,0.93062 -2.0045,1.65594 0,2.08138 2.8198,1.59067 2.8198,3.11679 0,0.45226 -0.2847,0.91828 -1.0474,0.91828 -0.9444,0 -1.46161,-0.72496 -1.6299,-1.57798 l -0.2328,0.0646 0.1418,1.48696 c 0.45369,0.25929 1.0615,0.43991 1.5776,0.43991 1.5396,0 2.22499,-0.90487 2.22499,-1.7593 0,-2.03024 -2.99929,-1.56422 -2.99929,-3.07834 m 6.307,-1.26682 c -1.73291,0 -2.96231,1.40934 -2.96231,3.07834 0,1.83585 1.41041,3.02612 3.13091,3.02612 1.6552,0 2.9743,-1.4097 2.9743,-3.07798 0,-1.83656 -1.3455,-3.02648 -3.1429,-3.02648 m 0.15519,5.76721 c -1.35819,0 -1.92719,-1.7586 -1.92719,-2.8187 0,-1.1116 0.50369,-2.61232 1.7847,-2.61232 1.37079,0 1.94089,1.7586 1.94089,2.81905 0,1.11196 -0.50439,2.61197 -1.7984,2.61197 m 8.23381,-0.62019 v -3.33657 c 0,-1.00894 -0.38771,-1.81045 -1.4869,-1.81045 -0.86581,0 -1.50081,0.4392 -2.2367,0.96978 v -0.84067 c 0,-0.10336 -0.038,-0.12911 -0.078,-0.12911 -0.6205,0.27093 -1.15141,0.4392 -1.7078,0.62053 v 0.24554 c 0.60819,0.24623 0.7493,0.3757 0.7493,0.85442 v 3.42653 c 0,0.42686 -0.25781,0.42686 -0.61981,0.42686 h -0.2325 v 0.33655 c 0.4646,-0.012 0.9306,-0.0258 1.39631,-0.0258 0.46639,0 0.91899,0.0258 1.37129,0.0258 v -0.33655 h -0.23219 c -0.3633,0 -0.64701,0 -0.64701,-0.42686 v -3.82799 c 0.4269,-0.28469 1.0873,-0.62053 1.5001,-0.62053 0.7366,0 1.19021,0.36159 1.19021,1.09925 v 3.34927 c 0,0.42686 -0.2593,0.42686 -0.62121,0.42686 h -0.23319 v 0.33655 c 0.46639,-0.012 0.93269,-0.0258 1.39769,-0.0258 0.4646,0 0.9183,0.0258 1.37051,0.0258 v -0.33655 h -0.2321 c -0.36301,0 -0.64841,0 -0.64841,-0.42686 m -69.47849,1.88243 c 0,1.58467 1.2852,2.86949 2.8691,2.86949 1.5868,0 2.8716,-1.28482 2.8716,-2.86949 0,-1.58609 -1.2848,-2.87091 -2.8716,-2.87091 -1.5839,0 -2.8691,1.28482 -2.8691,2.87091 m 2.8716,-4.04778 c 0.9931,0 1.9018,0.35772 2.6056,0.94898 -0.8488,-1.49331 -2.437,-2.51813 -4.2792,-2.56364 -1.9819,-0.0487 -3.7257,1.04951 -4.5956,2.68781 -0.2332,0.48825 -0.4092,1.0086 -0.5228,1.55223 -0.017,0.10265 -0.031,0.20743 -0.041,0.31185 h 2.939 c 0.4844,-1.69615 2.0437,-2.93723 3.894,-2.93723 m 3.9391,-1.6644 c -1.1194,-0.77294 -2.4765,-1.22555 -3.9391,-1.22555 -1.1935,0 -2.3149,0.30162 -3.2964,0.8315 0.5214,-0.14182 1.0707,-0.21132 1.638,-0.19721 2.9072,0.0716 5.2539,2.30611 5.5351,5.12833 l 0.018,0.0646 h 2.9542 v -8.9983 h -2.9094 z m -3.9391,9.76383 c -0.9917,0 -1.9004,-0.35737 -2.6046,-0.95038 0.8499,1.49471 2.4374,2.51883 4.2796,2.56469 1.9819,0.048 3.7253,-1.04951 4.5963,-2.68817 0.2325,-0.48859 0.4089,-1.00894 0.5221,-1.55328 0.017,-0.10266 0.03,-0.20637 0.042,-0.31044 h -2.9408 c -0.4829,1.69615 -2.0426,2.93758 -3.8943,2.93758 m -3.8742,-2.87267 -0.02,-0.0649 h -2.9555 c 0.532,3.30306 3.3965,5.82718 6.8495,5.82718 1.1938,0 2.3167,-0.30198 3.2978,-0.83185 -0.5204,0.14076 -1.0718,0.21132 -1.6383,0.1965 -2.9069,-0.0716 -5.2536,-2.30576 -5.5337,-5.12692"
         style="fill:#117fca;fill-opacity:1;fill-rule:nonzero;stroke:none;stroke-width:0.35277778"
         id="path54559"
         inkscape:connector-curvature="0" />
      <path
         d="m 75.62564,188.37278 h 1.349 v 0.26599 h -1.0287 v 0.70556 h 0.9684 v 0.26352 h -0.9684 v 1.028 h -0.3203 z"
         style="fill:#117fca;fill-opacity:1;fill-rule:nonzero;stroke:none;stroke-width:0.35277778"
         id="path54563"
         inkscape:connector-curvature="0" />
      <path
         inkscape:connector-curvature="0"
         id="path54565"
         style="fill:#117fca;fill-opacity:1;fill-rule:nonzero;stroke:none;stroke-width:0.35277778"
         d="m 78.13104,190.63588 h 0.3129 v -2.26342 h -0.3129 z" />
      <path
         d="m 79.80194,188.37278 h 0.3094 v 1.98437 h 1.054101 v 0.2787 H 79.80194 Z"
         style="fill:#117fca;fill-opacity:1;fill-rule:nonzero;stroke:none;stroke-width:0.35277778"
         id="path54569"
         inkscape:connector-curvature="0" />
      <path
         d="m 82.56334,190.63578 v -1.99707 h -0.7581 v -0.26565 h 1.827001 v 0.26565 H 82.87304 v 1.99707 z"
         style="fill:#117fca;fill-opacity:1;fill-rule:nonzero;stroke:none;stroke-width:0.35277778"
         id="path54573"
         inkscape:connector-curvature="0" />
      <path
         d="m 84.707127,188.37278 h 0.808919 c 0.11677,0 0.353837,0 0.5207,0.10619 0.168981,0.10689 0.250825,0.27904 0.250825,0.46143 0,0.15875 -0.05927,0.30057 -0.159808,0.40111 -0.09737,0.0967 -0.197908,0.12806 -0.267053,0.14675 0.216606,0.0561 0.31362,0.15417 0.345017,0.43639 0.0314,0.2667 0.05398,0.46002 0.141464,0.7112 h -0.335492 c -0.04974,-0.15064 -0.08184,-0.42616 -0.103011,-0.59866 -0.0388,-0.32879 -0.116769,-0.42228 -0.496005,-0.42228 h -0.395817 v 1.02094 h -0.309739 z m 0.304447,0.97472 h 0.4953 c 0.03422,0 0.212725,0 0.297039,-0.0501 0.0441,-0.0251 0.154164,-0.10689 0.154164,-0.29422 0,-0.36759 -0.325261,-0.36759 -0.451203,-0.36759 h -0.4953 z"
         style="fill:#117fca;fill-opacity:1;fill-rule:nonzero;stroke:none;stroke-width:0.35277778"
         id="path54585"
         inkscape:connector-curvature="0" />
      <path
         d="m 88.294041,188.37278 h 0.3351 l 0.915799,2.26307 h -0.342101 l -0.244499,-0.58914 h -1.0502 l -0.2452,0.58914 h -0.322101 z m -0.2847,1.41993 h 0.8548 l -0.417301,-1.10949 z"
         style="fill:#117fca;fill-opacity:1;fill-rule:nonzero;stroke:none;stroke-width:0.35277778"
         id="path54589"
         inkscape:connector-curvature="0" />
      <path
         d="m 90.948341,190.63578 v -1.99707 h -0.758802 v -0.26565 h 1.828102 v 0.26565 h -0.7596 v 1.99707 z"
         style="fill:#117fca;fill-opacity:1;fill-rule:nonzero;stroke:none;stroke-width:0.35277778"
         id="path54593"
         inkscape:connector-curvature="0" />
      <path
         inkscape:connector-curvature="0"
         id="path54595"
         style="fill:#117fca;fill-opacity:1;fill-rule:nonzero;stroke:none;stroke-width:0.35277778"
         d="m 93.098641,190.63588 h 0.313298 v -2.26342 h -0.313298 z" />
      <path
         d="m 94.954016,188.61739 c 0.23495,-0.25435 0.545747,-0.30445 0.756356,-0.30445 0.626533,0 1.021997,0.40182 1.021997,1.16911 0,0.60148 -0.2413,1.20791 -1.04775,1.20791 -0.771525,0 -1.021645,-0.54963 -1.021645,-1.17016 0,-0.25683 0.04339,-0.63642 0.291042,-0.90241 m 0.238478,1.59914 c 0.128411,0.15946 0.322791,0.20673 0.501297,0.20673 0.185561,0 0.370417,-0.0512 0.502356,-0.20673 0.184855,-0.22578 0.203552,-0.58349 0.203552,-0.73836 0,-0.51329 -0.169686,-0.90241 -0.686858,-0.90241 -0.573264,0 -0.721078,0.46144 -0.721078,0.92534 0,0.24765 0.0441,0.52035 0.200731,0.71543"
         style="fill:#117fca;fill-opacity:1;fill-rule:nonzero;stroke:none;stroke-width:0.35277778"
         id="path54607"
         inkscape:connector-curvature="0" />
      <path
         d="m 97.997941,188.37278 h 0.435999 l 1.113401,1.87184 v -1.87184 h 0.287899 v 2.26307 h -0.400799 l -1.151102,-1.92123 v 1.92123 h -0.285398 z"
         style="fill:#117fca;fill-opacity:1;fill-rule:nonzero;stroke:none;stroke-width:0.35277778"
         id="path54611"
         inkscape:connector-curvature="0" />
      <path
         d="m 103.07924,189.97483 c 0.006,0.15593 0.0251,0.44803 0.54539,0.44803 0.47096,0 0.53093,-0.2921 0.53093,-0.40464 0,-0.254 -0.20425,-0.30374 -0.52105,-0.38206 -0.34466,-0.085 -0.49883,-0.12206 -0.61524,-0.20073 -0.1845,-0.12594 -0.23495,-0.29457 -0.23495,-0.44485 0,-0.46143 0.43674,-0.66181 0.86254,-0.66181 0.15028,0 0.45473,0.0243 0.63641,0.22225 0.12594,0.13758 0.13264,0.29175 0.13794,0.38594 h -0.32562 c -0.0162,-0.28222 -0.25435,-0.34502 -0.47695,-0.34502 -0.31292,0 -0.50165,0.14041 -0.50165,0.36654 0,0.20038 0.13229,0.26952 0.40816,0.33549 0.53834,0.13794 0.59831,0.15099 0.73025,0.23883 0.2099,0.13758 0.22648,0.35772 0.22648,0.4512 0,0.4004 -0.31432,0.70626 -0.89464,0.70626 -0.17216,0 -0.52387,-0.0289 -0.70238,-0.25752 -0.12876,-0.16616 -0.13159,-0.34925 -0.13159,-0.45791 z"
         style="fill:#117fca;fill-opacity:1;fill-rule:nonzero;stroke:none;stroke-width:0.35277778"
         id="path54623"
         inkscape:connector-curvature="0" />
      <path
         d="m 105.92861,188.61739 c 0.23601,-0.25435 0.54539,-0.30445 0.75565,-0.30445 0.62724,0 1.0227,0.40182 1.0227,1.16911 0,0.60148 -0.242,1.20791 -1.0481,1.20791 -0.77047,0 -1.02129,-0.54963 -1.02129,-1.17016 0,-0.25683 0.0427,-0.63642 0.29104,-0.90241 m 0.23848,1.59914 c 0.12841,0.15946 0.32279,0.20673 0.50129,0.20673 0.18627,0 0.37042,-0.0512 0.50236,-0.20673 0.18486,-0.22578 0.20355,-0.58349 0.20355,-0.73836 0,-0.51329 -0.16898,-0.90241 -0.68756,-0.90241 -0.57326,0 -0.72037,0.46144 -0.72037,0.92534 0,0.24765 0.0441,0.52035 0.20073,0.71543"
         style="fill:#117fca;fill-opacity:1;fill-rule:nonzero;stroke:none;stroke-width:0.35277778"
         id="path54627"
         inkscape:connector-curvature="0" />
      <path
         d="m 108.96584,188.37278 h 0.3111 v 1.98437 h 1.0538 v 0.2787 h -1.3649 z"
         style="fill:#117fca;fill-opacity:1;fill-rule:nonzero;stroke:none;stroke-width:0.35277778"
         id="path54631"
         inkscape:connector-curvature="0" />
      <path
         d="m 111.80612,188.37278 v 1.40159 c 0,0.24094 0.0536,0.34148 0.10054,0.40745 0.14076,0.18733 0.36019,0.22225 0.51717,0.22225 0.61137,0 0.61137,-0.47942 0.61137,-0.64276 v -1.38853 h 0.3048 v 1.39418 c 0,0.12347 -0.003,0.37641 -0.18556,0.60219 -0.22261,0.27975 -0.56692,0.31362 -0.73061,0.31362 -0.21272,0 -0.58949,-0.0593 -0.79939,-0.36019 -0.0691,-0.0995 -0.13123,-0.23213 -0.13123,-0.5715 v -1.3783 z"
         style="fill:#117fca;fill-opacity:1;fill-rule:nonzero;stroke:none;stroke-width:0.35277778"
         id="path54643"
         inkscape:connector-curvature="0" />
      <path
         d="m 115.24864,190.63578 v -1.99707 h -0.7588 v -0.26565 h 1.8274 v 0.26565 h -0.7589 v 1.99707 z"
         style="fill:#117fca;fill-opacity:1;fill-rule:nonzero;stroke:none;stroke-width:0.35277778"
         id="path54647"
         inkscape:connector-curvature="0" />
      <path
         inkscape:connector-curvature="0"
         id="path54649"
         style="fill:#117fca;fill-opacity:1;fill-rule:nonzero;stroke:none;stroke-width:0.35277778"
         d="m 117.39804,190.63588 h 0.314 v -2.26342 h -0.314 z" />
      <path
         d="m 119.25443,188.61739 c 0.2353,-0.25435 0.54539,-0.30445 0.75565,-0.30445 0.62653,0 1.022,0.40182 1.022,1.16911 0,0.60148 -0.2413,1.20791 -1.0474,1.20791 -0.77117,0 -1.022,-0.54963 -1.022,-1.17016 0,-0.25683 0.0441,-0.63642 0.29175,-0.90241 m 0.23777,1.59914 c 0.12947,0.15946 0.32279,0.20673 0.502,0.20673 0.18557,0 0.37007,-0.0512 0.50236,-0.20673 0.18415,-0.22578 0.20285,-0.58349 0.20285,-0.73836 0,-0.51329 -0.16898,-0.90241 -0.68616,-0.90241 -0.57396,0 -0.72178,0.46144 -0.72178,0.92534 0,0.24765 0.0441,0.52035 0.20073,0.71543"
         style="fill:#117fca;fill-opacity:1;fill-rule:nonzero;stroke:none;stroke-width:0.35277778"
         id="path54661"
         inkscape:connector-curvature="0" />
      <path
         d="m 122.29764,188.37278 h 0.4364 l 1.113,1.87184 v -1.87184 h 0.2886 v 2.26307 h -0.4008 l -1.1511,-1.92123 v 1.92123 h -0.2861 z"
         style="fill:#117fca;fill-opacity:1;fill-rule:nonzero;stroke:none;stroke-width:0.35277778"
         id="path54665"
         inkscape:connector-curvature="0" />
      <path
         d="m 125.72424,189.97483 c 0.006,0.15593 0.0251,0.44803 0.54539,0.44803 0.47096,0 0.52952,-0.2921 0.52952,-0.40464 0,-0.254 -0.20284,-0.30374 -0.51964,-0.38206 -0.34466,-0.085 -0.49883,-0.12206 -0.61524,-0.20073 -0.1845,-0.12594 -0.23495,-0.29457 -0.23495,-0.44485 0,-0.46143 0.43568,-0.66181 0.86254,-0.66181 0.15028,0 0.45473,0.0243 0.63641,0.22225 0.12524,0.13758 0.13159,0.29175 0.13794,0.38594 h -0.32562 c -0.0162,-0.28222 -0.25435,-0.34502 -0.47695,-0.34502 -0.31433,0 -0.50165,0.14041 -0.50165,0.36654 0,0.20038 0.13158,0.26952 0.40746,0.33549 0.53904,0.13794 0.59901,0.15099 0.73025,0.23883 0.2106,0.13758 0.22613,0.35772 0.22613,0.4512 0,0.4004 -0.31327,0.70626 -0.89394,0.70626 -0.17251,0 -0.52352,-0.0289 -0.70203,-0.25752 -0.12912,-0.16616 -0.13194,-0.34925 -0.13194,-0.45791 z"
         style="fill:#117fca;fill-opacity:1;fill-rule:nonzero;stroke:none;stroke-width:0.35277778"
         id="path54677"
         inkscape:connector-curvature="0" />
    </g>
  </g>
</svg>
