<svg xmlns="http://www.w3.org/2000/svg" viewBox="0 0 600.9 93.7" role="img" aria-label="HELIOS logo">
    <path d="M128.3 20.6h9.2v20.8h23.8V20.6h9.2v52.3h-9.2V49.3h-23.8v23.6h-9.2V20.6zm58.4 35.5c0 5.9 3.2 11.2 10.2 11.2 4.9 0 7.8-2.1 9.2-6.3h7.9c-1.8 8.3-8.9 12.9-17.1 12.9-11.9 0-18.5-8.2-18.5-19.9 0-10.8 7-20 18.3-20 11.9 0 19.3 10.8 17.9 22.1h-27.9zm19.5-5.5c-.4-5.3-3.8-10-9.5-10-5.8 0-9.7 4.4-10 10h19.5zm15-30h8.4v52.3h-8.4V20.6zm17.6 0h8.4v7.9h-8.4v-7.9zm0 14.4h8.4v37.9h-8.4V35zm15.7 18.9c0-11.5 7-19.9 19.1-19.9 12.1 0 19.1 8.4 19.1 19.9 0 11.6-7 20-19.1 20-12.1 0-19.1-8.3-19.1-20zm29.9 0c0-6.5-3.3-13.3-10.8-13.3s-10.8 6.8-10.8 13.3c0 6.6 3.3 13.4 10.8 13.4s10.8-6.8 10.8-13.4zm21.6 6.8c.5 4.9 4.1 6.6 8.6 6.6 3.2 0 8.6-.7 8.4-5-.2-4.4-6.3-4.9-12.4-6.3-6.2-1.3-12.2-3.5-12.2-11.2 0-8.3 8.9-10.8 15.8-10.8 7.8 0 14.9 3.1 15.8 11.6h-8.7c-.8-4-4-5.1-7.7-5.1-2.4 0-6.9.6-6.9 3.9 0 4.1 6.2 4.8 12.3 6.1 6.1 1.4 12.2 3.6 12.2 11.1 0 9-9.1 12.3-16.9 12.3-9.6 0-16.6-4.2-16.8-13.2h8.5zm47.3-40.1h3.3l13.6 48.9h.1l13.8-48.9h4l14.1 48.9h.1l13.4-48.9h3.4l-15 52.3h-3.7L386 23.4h-.1l-14.1 49.5h-3.6l-14.9-52.3zm69 33.8v.4c0 8.9 4.6 16.5 13.8 16.5 7.5 0 11.9-4.2 13.5-11.2h2.8c-1.7 8.7-7.3 13.6-16.3 13.6-11.1 0-16.6-8.4-16.6-19.4 0-10.6 5.6-20 17.1-20 10.5 0 16.3 8.4 16.3 18.5 0 .5-.1 1.2-.1 1.6h-30.5zm27.6-2.4c-.3-8.2-4.9-15.2-13.4-15.2-9 0-13.6 7.3-14.1 15.2h27.5zm10-31.4h2.8v22.6h.1c2.1-5.9 8.1-8.9 14.3-8.9 11.1 0 16.3 8.4 16.3 18.8 0 18-11.1 20.6-16.3 20.6-9.9 0-13.7-7.3-14.3-9.3h-.1v8.4h-2.8V20.6zm30.7 32.6c0-8.4-4.5-16.4-13.6-16.4-9.7 0-14.4 7-14.4 16.4 0 9.2 4.1 18.2 14.4 18.2 10 0 13.6-9.6 13.6-18.2zm10.6 7.2c.4 7 5.7 11 12.5 11 4.9 0 11.9-1.5 11.9-8 0-12.7-25.9-4-25.9-19.3 0-7.4 7.3-9.7 13.6-9.7 7.9 0 13.9 3.4 13.9 12h-2.8c0-6.8-4.8-9.6-11.1-9.6-5.1 0-10.8 1.9-10.8 7.3 0 6.1 6.4 6.9 12.5 8.3 7.5 1.4 13.3 3.2 13.3 11.1 0 8.1-8.1 10.4-14.7 10.4-8.6 0-15-4.6-15.2-13.4h2.8zm34.6-32.3v-7.5h2.8v7.5h-2.8zm0 44.8V35.3h2.8V73h-2.8zm25.5-35.2h-8.2V64c0 6 2.9 6.7 8.1 6.5v2.4c-5.6.4-11.3-.4-10.9-8.9V37.7h-7v-2.4h7V23.5h2.8v11.7h8.2v2.5zm5.2 16.7v.4c0 8.9 4.6 16.5 13.8 16.5 7.5 0 11.9-4.2 13.5-11.2h2.8c-1.7 8.7-7.3 13.6-16.3 13.6-11.1 0-16.6-8.4-16.6-19.4 0-10.6 5.6-20 17.1-20 10.5 0 16.3 8.4 16.3 18.5 0 .5-.1 1.2-.1 1.6h-30.5zm27.6-2.4c-.3-8.2-4.9-15.2-13.4-15.2-9 0-13.6 7.3-14.1 15.2h27.5z"></path>
    <path d="M.5 53.5c.2 1.6.5 3.1.9 4.6C4.1 44.7 7 31.1 10 18c-1.1 1.4-2.2 2.9-3.1 4.5-2.1 10.2-4.2 20.6-6.4 31zM3.7 65c.4 1 .9 2 1.4 3 3.8-19.3 8-38.9 12.4-57.7-1.1.9-2.2 1.8-3.2 2.8-3.2 17-6.8 34.7-10.6 51.9zm-1.8-4.9c.4 1.2.8 2.4 1.2 3.5 3.3-16.7 7-33.8 10.7-50-1.1 1.1-2.1 2.2-3.1 3.4C8 31.1 5 45.7 1.9 60.1zm3.8-35.6C2.1 31.1 0 38.7 0 46.8c0 1.2.1 2.3.1 3.5C1.9 41.7 3.8 33 5.7 24.5zm73.7 56c3.2-16.9 6.8-34.6 10.6-51.8-.4-1-.9-2.1-1.4-3.1-3.7 19.3-8 38.9-12.4 57.7 1.1-.9 2.2-1.8 3.2-2.8zm7.4-9.3c2-10.3 4.2-20.7 6.4-31-.2-1.6-.5-3.1-.9-4.6-2.7 13.4-5.6 27-8.6 40.1 1.1-1.5 2.2-2.9 3.1-4.5zm1.3-46.5c-.5-1-1.1-1.9-1.6-2.8-3.8 20.3-8.2 40.6-13 60.7 3.7-20.5 7.9-41 12.6-61.3-.6-.9-1.2-1.8-1.9-2.7-3.7 20.5-8 41-12.9 61.2C75 59.2 79.2 38.7 84 18.3 75.4 7.2 61.9 0 46.8 0c-11 0-21.2 3.9-29.2 10.3C14 29.6 10 49.6 5.6 69c.5 1 1.1 1.9 1.6 2.8 3.8-20.3 8.2-40.6 13-60.7-3.7 20.5-7.9 41-12.6 61.3.6.9 1.2 1.8 1.9 2.7 3.7-20.5 8.1-41 12.9-61.2C18.8 34.5 14.5 55 9.7 75.4c8.6 11.1 22 18.3 37.1 18.3 11.1 0 21.2-3.9 29.3-10.3 3.5-19.3 7.6-39.3 12-58.7zM12.1 77c3.5-20.2 7.8-40.4 12.6-60.3C21.2 36.9 17 57.1 12.1 77zM27 19.5c-3.1 18.4-7 36.7-11.5 54.8 3.2-18.4 7-36.8 11.5-54.8zm2.2 2.7c-2.8 16.5-6.2 33-10.3 49.2 2.8-16.5 6.2-32.9 10.3-49.2zm2.3 2.8c-2.4 14.7-5.4 29.3-9.1 43.7C24.7 54 27.8 39.4 31.5 25zm16.7 40.9l3.2-15.1H40.7l-3.2 15.1H25.8l8-38.1h11.7l-2.8 13.3h10.7l2.8-13.3h11.7l-8 38.1H48.2zM71.3 25c-2.4 14.7-5.4 29.3-9.1 43.7C64.5 54 67.6 39.4 71.3 25zm3.4-2.8c-2.8 16.5-6.2 33-10.3 49.2 2.8-16.5 6.2-32.9 10.3-49.2zm3.5-2.7c-3.1 18.4-7 36.7-11.5 54.8 3.1-18.4 7-36.8 11.5-54.8zm3.4-2.8C78 36.9 73.8 57.1 69 77c3.5-20.2 7.7-40.4 12.6-60.3zM88 69.1c3.6-6.6 5.6-14.2 5.6-22.3 0-1.2 0-2.3-.1-3.5-1.8 8.7-3.6 17.3-5.5 25.8zm3.8-35.5c-.4-1.2-.8-2.4-1.2-3.5-3.3 16.7-7 33.8-10.7 50C81 79 82 77.9 83 76.7c2.7-14.2 5.7-28.8 8.8-43.1z" fill="#c90707"></path>
  </svg>
