<?xml version="1.0" encoding="UTF-8"?>
<!-- Created with Inkscape (http://www.inkscape.org/) -->
<svg width="1556.2" height="401.04" version="1.1" viewBox="0 0 1556.2 401.04" xmlns="http://www.w3.org/2000/svg">
 <g>
  <path transform="matrix(13.333 0 0 -13.333 752.87 321.48)" d="m0 0h3.09c0.165 0 0.331 0.165 0.331 0.331v15.89c0 0.165-0.166 0.331-0.331 0.331h-3.09c-0.165 0-0.331-0.166-0.331-0.331v-15.89c0-0.166 0.166-0.331 0.331-0.331" fill="#211d1d"/>
  <path transform="matrix(13.333 0 0 -13.333 900.74 142.72)" d="m0 0h3.558c3.145 0 5.408-1.986 5.408-5.131s-1.849-5.131-5.352-5.131h-3.614zm-3.421-13.407h7.035c5.793 0 9.103 3.283 9.103 8.276 0 5.048-3.917 8.276-9.159 8.276h-6.979c-0.165 0-0.331-0.166-0.331-0.331v-15.89c0-0.166 0.166-0.331 0.331-0.331" fill="#211d1d"/>
  <path transform="matrix(13.333 0 0 -13.333 1161.2 142.72)" d="m0 0h3.558c3.145 0 5.408-1.986 5.408-5.131s-1.849-5.131-5.352-5.131h-3.614zm-3.752 2.814v-15.89c0-0.166 0.166-0.331 0.331-0.331h7.035c5.793 0 9.103 3.283 9.103 8.276 0 5.048-3.917 8.276-9.159 8.276h-6.979c-0.165 0-0.331-0.166-0.331-0.331" fill="#211d1d"/>
  <path transform="matrix(13.333 0 0 -13.333 1376 321.48)" d="m0 0h13.131c0.166 0 0.386 0.221 0.386 0.386v2.373c0 0.165-0.22 0.386-0.386 0.386h-9.71v3.752h8.717c0.165 0 0.386 0.22 0.386 0.386v2.372c0 0.166-0.221 0.386-0.386 0.386h-8.717v3.366h9.545c0.165 0 0.386 0.221 0.386 0.386v2.373c0 0.165-0.221 0.386-0.386 0.386h-12.966c-0.165 0-0.331-0.166-0.331-0.331v-15.89c0-0.166 0.166-0.331 0.331-0.331" fill="#211d1d"/>
  <path transform="matrix(13.333 0 0 -13.333 549.08 160.75)" d="m0 0v4.166c0 0.182-0.149 0.331-0.331 0.331h-3.09c-0.182 0-0.331-0.149-0.331-0.331v-7.83c0-0.228 0.278-0.342 0.438-0.179l2.987 3.044c0.21 0.213 0.327 0.5 0.327 0.799" fill="#211d1d"/>
  <path transform="matrix(13.333 0 0 -13.333 716.81 315.22)" d="m0 0-7.531 8.635 7.145 6.951c0.165 0.166 0.193 0.221 0.193 0.304 0 0.055-0.055 0.193-0.248 0.193h-3.918c-0.275 0-0.469-0.055-0.717-0.304l-6.4-6.262-4.533-4.669c-0.206-0.212-0.322-0.497-0.322-0.794v-4.192c0-0.182 0.149-0.331 0.331-0.331h3.09c0.182 0 0.331 0.149 0.331 0.331v3.862l2.427 2.345 5.462-6.29c0.166-0.193 0.359-0.248 0.607-0.248h3.973c0.193 0 0.248 0.11 0.248 0.193 0 0.11-0.027 0.166-0.138 0.276" fill="#211d1d"/>
  <path transform="matrix(13.333 0 0 -13.333 1642.6 100.79)" d="m0 0c0.016 0 0.044-0.028 0.044-0.045v-1.634c0-0.016-0.028-0.038-0.044-0.038h-0.222c-0.016 0-0.044 0.022-0.044 0.038v1.141h-0.011s-0.077-0.149-0.139-0.238l-0.504-0.725-0.509 0.725c-0.061 0.089-0.144 0.238-0.144 0.238h-0.011v-1.141c0-0.016-0.022-0.038-0.039-0.038h-0.227c-0.017 0-0.044 0.022-0.044 0.038v1.634c0 0.017 0.027 0.045 0.044 0.045h0.166c0.022 0 0.044-0.011 0.055-0.028l0.698-0.991h0.017l0.698 0.991c0.011 0.017 0.033 0.028 0.05 0.028zm-3.755-0.227v0.188c0 0.017 0.022 0.039 0.038 0.039h1.618c0.016 0 0.038-0.022 0.038-0.039v-0.188c0-0.017-0.022-0.039-0.038-0.039h-0.654v-1.407c0-0.022-0.028-0.044-0.044-0.044h-0.222c-0.016 0-0.044 0.022-0.044 0.044v1.407h-0.654c-0.016 0-0.038 0.022-0.038 0.039" display="none" fill="#211d1d"/>
  <path transform="matrix(13.333 0 0 -13.333 281.53 133.89)" d="m0 0c-0.245 0.254-0.245 0.656 0 0.906l7.947 8.047c0.399 0.404 0.113 1.088-0.454 1.088h-10.196c-0.275 0-0.537-0.109-0.73-0.306-6.817-6.973-17.495-18.013-17.495-18.013-0.119-0.119-0.187-0.284-0.187-0.453v-10.505c0-0.584 0.711-0.876 1.118-0.452l13.082 13.471c0.254 0.266 0.677 0.266 0.931 0l13.081-13.471c0.407-0.424 1.118-0.132 1.118 0.452v10.505c0 0.169-0.068 0.334-0.186 0.453z" fill="#c11d28"/>
  <path transform="matrix(13.333 0 0 -13.333 14.903 149.65)" d="m0 0 9.827 10.123c0.398 0.411 0.106 1.101-0.469 1.101h-9.824c-0.359 0-0.651-0.292-0.651-0.648v-10.123c0-0.584 0.711-0.872 1.117-0.453" fill="#c11d28"/>
  <path transform="matrix(13.333 0 0 -13.333 192.55 291.39)" d="m0 0c-1.746-0.114-3.053-1.662-3.053-3.412v-4.148c0-0.368 0.296-0.664 0.664-0.664h5.226c0.368 0 0.664 0.296 0.664 0.664v4.292c0 0.904-0.368 1.725-0.96 2.317-0.638 0.638-1.547 1.019-2.541 0.951" fill="#c11d28"/>
 </g>
</svg>
