<?xml version="1.0" encoding="UTF-8" standalone="no"?>
<!-- Created with Inkscape (http://www.inkscape.org/) -->

<svg
   xmlns:dc="http://purl.org/dc/elements/1.1/"
   xmlns:cc="http://creativecommons.org/ns#"
   xmlns:rdf="http://www.w3.org/1999/02/22-rdf-syntax-ns#"
   xmlns:svg="http://www.w3.org/2000/svg"
   xmlns="http://www.w3.org/2000/svg"
   version="1.1"
   width="212.59766"
   height="19.335938"
   id="svg3356">
  <defs
     id="defs3358">
    <clipPath
       id="clip9">
      <path
         d="m 534,43 18.75391,0 0,14.988281 -18.75391,0 z"
         id="path156" />
    </clipPath>
    <clipPath
       id="clip8">
      <path
         d="m 513,43 18,0 0,14.988281 -18,0 z"
         id="path153" />
    </clipPath>
    <clipPath
       id="clip7">
      <path
         d="m 491,43 19,0 0,14.988281 -19,0 z"
         id="path150" />
    </clipPath>
    <clipPath
       id="clip6">
      <path
         d="m 470,43 17,0 0,14.988281 -17,0 z"
         id="path147" />
    </clipPath>
    <clipPath
       id="clip5">
      <path
         d="m 451,43 17,0 0,14.988281 -17,0 z"
         id="path144" />
    </clipPath>
    <clipPath
       id="clip4">
      <path
         d="m 431,42.519531 19,0 0,15.46875 -19,0 z"
         id="path141" />
    </clipPath>
    <clipPath
       id="clip3">
      <path
         d="m 421,43 7,0 0,14.988281 -7,0 z"
         id="path138" />
    </clipPath>
    <clipPath
       id="clip2">
      <path
         d="m 403,43 16,0 0,14.988281 -16,0 z"
         id="path135" />
    </clipPath>
    <clipPath
       id="clip1">
      <path
         d="M 382.67578,43 400,43 l 0,14.988281 -17.32422,0 z"
         id="path132" />
    </clipPath>
  </defs>
  <metadata
     id="metadata3361">
    <rdf:RDF>
      <cc:Work
         rdf:about="">
        <dc:format>image/svg+xml</dc:format>
        <dc:type
           rdf:resource="http://purl.org/dc/dcmitype/StillImage" />
        <dc:title></dc:title>
      </cc:Work>
    </rdf:RDF>
  </metadata>
  <g
     transform="translate(-365.12975,-494.12278)"
     id="layer1">
    <g
       transform="matrix(1.25,0,0,1.25,-113.21498,440.97337)"
       clip-path="url(#clip1)"
       id="g163">
      <path
         d="m 388.38672,46.421875 3.6875,0 c 1.43359,0 1.98047,0.453125 1.98047,1.546875 0,1.050781 -0.54688,1.492188 -1.98047,1.492188 l -3.6875,0 z m -5.71094,11.058594 5.71094,0 0,-4.496094 6.10937,0 c 4.05078,0 5.50391,-2.144531 5.50391,-4.917969 0,-3.21875 -1.49609,-5.039062 -5.53906,-5.039062 l -11.78516,0 z"
         id="path165"
         style="fill:#eb1923;fill-opacity:1;fill-rule:nonzero;stroke:none" />
    </g>
    <g
       transform="matrix(1.25,0,0,1.25,-113.21498,440.97337)"
       clip-path="url(#clip2)"
       id="g167">
      <path
         d="m 403.57812,43.027344 14.63672,0 0,3.519531 -8.92968,0 0,2.210937 7.26953,0 0,3.519532 -7.26953,0 0,5.203125 -5.70704,0 z"
         id="path169"
         style="fill:#eb1923;fill-opacity:1;fill-rule:nonzero;stroke:none" />
    </g>
    <g
       transform="matrix(1.25,0,0,1.25,-113.21498,440.97337)"
       clip-path="url(#clip3)"
       id="g171">
      <path
         d="m 421.54687,43.027344 5.71094,0 0,14.453125 -5.71094,0 z"
         id="path173"
         style="fill:#eb1923;fill-opacity:1;fill-rule:nonzero;stroke:none" />
    </g>
    <g
       transform="matrix(1.25,0,0,1.25,-113.21498,440.97337)"
       clip-path="url(#clip4)"
       id="g175">
      <path
         d="m 435.60547,51.347656 c -2.79297,-0.425781 -3.94531,-2.046875 -3.94531,-4.070312 0,-3.742188 3.66406,-4.757813 8.36328,-4.757813 6.43359,0 9.08203,1.683594 9.28906,4.738281 l -6.64453,0 c 0,-0.589843 -0.33985,-0.953124 -0.8711,-1.15625 -0.5,-0.21875 -1.14843,-0.300781 -1.77343,-0.300781 -1.70313,0 -2.28907,0.425781 -2.28907,1.03125 0,0.40625 0.17969,0.667969 0.7461,0.75 l 6.82031,1.011719 c 2.875,0.425781 4.65625,1.761719 4.65625,4.210938 0,3.523437 -2.87109,5.183593 -9.29297,5.183593 -4.39062,0 -9.1875,-0.609375 -9.20703,-4.859375 l 6.88281,0 c 0.0156,0.484375 0.20313,0.808594 0.60547,1.035156 0.42578,0.199219 1.05469,0.300782 1.94531,0.300782 1.77735,0 2.26563,-0.484375 2.26563,-1.175782 0,-0.425781 -0.26172,-0.847656 -1.02734,-0.96875 z"
         id="path177"
         style="fill:#eb1923;fill-opacity:1;fill-rule:nonzero;stroke:none" />
    </g>
    <g
       transform="matrix(1.25,0,0,1.25,-113.21498,440.97337)"
       clip-path="url(#clip5)"
       id="g179">
      <path
         d="m 456.78906,46.667969 -5.28125,0 0,-3.640625 16.27344,0 0,3.640625 -5.28125,0 0,10.8125 -5.71094,0 z"
         id="path181"
         style="fill:#eb1923;fill-opacity:1;fill-rule:nonzero;stroke:none" />
    </g>
    <g
       transform="matrix(1.25,0,0,1.25,-113.21498,440.97337)"
       clip-path="url(#clip6)"
       id="g183">
      <path
         d="m 470.40234,43.027344 15.84375,0 0,3.519531 -10.13281,0 0,1.941406 8.01953,0 0,3.527344 -8.01953,0 0,1.945313 10.60547,0 0,3.519531 -16.31641,0 z"
         id="path185"
         style="fill:#eb1923;fill-opacity:1;fill-rule:nonzero;stroke:none" />
    </g>
    <g
       transform="matrix(1.25,0,0,1.25,-113.21498,440.97337)"
       clip-path="url(#clip7)"
       id="g187">
      <path
         d="m 497.26172,46.667969 3.96875,0 c 0.95312,0 1.66406,0.265625 1.66406,1.359375 0,0.910156 -0.46875,1.355468 -1.58203,1.355468 l -4.05078,0 z m -5.70703,10.8125 5.70703,0 0,-4.453125 4.05078,0 c 1.05469,0 1.41797,0.648437 1.47656,1.722656 0.10547,1.679688 0.10547,2.304688 0.30469,2.730469 l 6.23437,0 c -0.36328,-0.441407 -0.64843,-1.050781 -0.71093,-1.695313 L 508.37891,52.625 c -0.10157,-1.257812 -0.79688,-1.984375 -1.64454,-2.230469 l 0,-0.03906 c 1.66407,-0.484375 2.23047,-1.941407 2.23047,-3.296875 0,-1.585938 -0.89062,-2.976563 -1.96484,-3.503906 -0.78906,-0.386719 -1.78125,-0.527344 -3.41797,-0.527344 l -12.02734,0 z"
         id="path189"
         style="fill:#eb1923;fill-opacity:1;fill-rule:nonzero;stroke:none" />
    </g>
    <g
       transform="matrix(1.25,0,0,1.25,-113.21498,440.97337)"
       clip-path="url(#clip8)"
       id="g191">
      <path
         d="m 513.93359,43.027344 15.83985,0 0,3.519531 -10.12891,0 0,1.941406 8.01563,0 0,3.527344 -8.01563,0 0,1.945313 10.60156,0 0,3.519531 -16.3125,0 z"
         id="path193"
         style="fill:#eb1923;fill-opacity:1;fill-rule:nonzero;stroke:none" />
    </g>
    <g
       transform="matrix(1.25,0,0,1.25,-113.21498,440.97337)"
       clip-path="url(#clip9)"
       id="g195">
      <path
         d="m 540.69141,46.667969 3.96875,0 c 0.94921,0 1.66015,0.265625 1.66015,1.359375 0,0.910156 -0.46484,1.355468 -1.58203,1.355468 l -4.04687,0 z m -5.71094,10.8125 5.71094,0 0,-4.453125 4.04687,0 c 1.05469,0 1.41797,0.648437 1.48047,1.722656 0.10156,1.679688 0.10156,2.304688 0.30078,2.730469 l 6.23828,0 c -0.36328,-0.441407 -0.64844,-1.050781 -0.70703,-1.695313 L 551.80469,52.625 c -0.10157,-1.257812 -0.78907,-1.984375 -1.64453,-2.230469 l 0,-0.03906 c 1.66406,-0.484375 2.23437,-1.941407 2.23437,-3.296875 0,-1.585938 -0.89453,-2.976563 -1.96484,-3.503906 -0.79297,-0.386719 -1.78125,-0.527344 -3.41797,-0.527344 l -12.03125,0 z"
         id="path197"
         style="fill:#eb1923;fill-opacity:1;fill-rule:nonzero;stroke:none" />
    </g>
  </g>
</svg>
