<?xml version="1.0" encoding="utf-8"?>
<!-- Generator: Adobe Illustrator 27.7.0, SVG Export Plug-In . SVG Version: 6.00 Build 0)  -->
<svg version="1.1" id="Layer_1" xmlns="http://www.w3.org/2000/svg" xmlns:xlink="http://www.w3.org/1999/xlink" x="0px" y="0px"
	 viewBox="0 0 500 170" style="enable-background:new 0 0 500 170;" xml:space="preserve">
<style type="text/css">
	.st0{fill:#00234B;}
</style>
<g>
	<path class="st0" d="M45.85,4.48h443c6.32,0,11.44,5.12,11.44,11.44v139.07c0,6.3-5.11,11.41-11.41,11.41H90.48
		c-1.08,0-1.96-0.88-1.96-1.96v-11.78c0-1.08,0.88-1.96,1.96-1.96h9.7c0,0,9.68,2.22,6.52-8.56c-2-6.8-3.84-12.86-4.93-16.42
		c-0.6-1.97-2.42-3.31-4.48-3.31H53.46c-1.99,0-3.76,1.26-4.42,3.13l-5.97,16.97c0,0-4.09,7.99,4.28,7.99h11.8
		c1.08,0,1.96,0.88,1.96,1.96v12.44c0,1.08-0.88,1.96-1.96,1.96h-57c-1.08,0-1.96-0.88-1.96-1.96v-11.88c0-1.08,0.88-1.96,1.96-1.96
		h7.61c0,0,7.44,0.74,10.23-4.65c2.79-5.39,4.46-12.46,4.46-12.46L60.19,31.45c0,0,1.49-4.05,0.38-7.4
		c-1.11-3.36-6.89-3.03-6.89-3.03h-7.72c-1.08,0-1.95-0.87-1.96-1.95L43.88,6.46C43.88,5.37,44.76,4.48,45.85,4.48z M111.62,27.97
		c0,0,18.14,65.02,20.5,73.74c2.36,8.72,7.07,31.1,13.66,40.99c6.6,9.89,16.49,8.25,16.49,8.25s309.02,0,315.38,0
		c6.36,0,4.95-4.95,4.95-4.95s0-115.67,0-120.38s-4.24-4.24-4.24-4.24h-362.5C108.56,21.37,111.62,27.97,111.62,27.97z
		 M183.88,44.25h-33.3c-0.89,0-1.61,0.72-1.61,1.61v9.67c0,0.89,0.72,1.61,1.61,1.61h4.6c0.08,0,0.17,0,0.25-0.02
		c0.57-0.08,3.43-0.36,3.43,2.61c0,3.3,0,52.6,0,52.6s0.18,2.12-3.06,2.12h-4.75c-0.89,0-1.61,0.72-1.61,1.61v9.94
		c0,0.89,0.72,1.61,1.61,1.61h59.86c0.89,0,1.61-0.72,1.61-1.61v-23.74c0-0.89-0.72-1.61-1.61-1.61h-10.34
		c-0.89,0-1.61,0.72-1.61,1.61v9.22c0,0.09,0,0.22,0,0.33c0,0.7-0.34,2.66-2.36,2.66c-3.06,0-18.76,0-18.76,0s-2.49,0.23-2.49-3.53
		V60.89c0-0.06,0-0.11,0.01-0.17c0.07-0.55,0.56-3.44,3.76-3.44h4.75c0.89,0,1.61-0.72,1.61-1.61v-9.81
		C185.48,44.97,184.76,44.25,183.88,44.25z M216.63,55.98c0,0.89,0.77,1.61,1.72,1.61h5.69c0.11,0,0.22,0.01,0.33,0.03
		c0.62,0.12,2.58,0.73,2.58,3.5v50.04c0,0.14,0.01,0.27,0.01,0.41c0,0.68,0.4,2.88-3.45,2.88h-4.65c-0.95,0-1.72,0.72-1.72,1.61
		v9.97c0,0.89,0.77,1.61,1.72,1.61h28.03c0.95,0,1.72-0.72,1.72-1.61v-9.97c0-0.89-0.77-1.61-1.72-1.61h-2.56
		c0,0-2.77,0.47-2.77-3.53V81.01c0-1.67,2.39-2.23,3.23-0.76l17.66,30.67l1.23,2.08c1.01,1.71,3.5,1.67,4.45-0.08
		c0.67-1.22,1.24-2.26,1.25-2.28l17.02-30.28c0.84-1.48,3.24-0.92,3.24,0.75v30.5c0,0.14,0,0.19,0,0.33c0,0.91-0.29,2.49-2.94,2.49
		h-1.89c-0.95,0-1.72,0.72-1.72,1.61v10c0,0.89,0.77,1.61,1.72,1.61h28.03c0.95,0,1.72-0.72,1.72-1.61v-9.97
		c0-0.89-0.77-1.61-1.72-1.61h-5.33c0,0-3.02,0.37-3.02-3.77c0-4.71,0-49.71,0-49.71s0-3.53,3.78-3.53h4.83
		c0.95,0,1.72-0.72,1.72-1.61v-9.97c0-0.89-0.77-1.61-1.72-1.61H292.5c-0.06,0-0.11,0-0.17-0.01c-0.65-0.06-5.16-0.35-6.72,3.07
		c-1.76,3.85-15.28,29.15-18.96,36.04c-0.39,0.74-1.45,0.73-1.83-0.01c-3.75-7.19-17.89-34.05-18.45-35.27
		c-0.02-0.04-0.04-0.08-0.06-0.12c-0.29-0.5-2.32-3.7-6.51-3.7H218c-0.76,0-1.37,0.61-1.37,1.37V55.98z M319.47,55.57
		c-0.02,0.9,0.71,1.64,1.61,1.64h5.66c3.28,0,3.06,3.06,3.06,3.06s0,47.11,0,51.35c0,3.17-3.3,2.87-3.3,2.87h-5.22
		c-0.89,0-1.61,0.72-1.61,1.61v9.94c0,0.89,0.72,1.61,1.61,1.61h58.19c0.89,0,1.61-0.72,1.61-1.61v-21.99
		c0-0.89-0.72-1.61-1.61-1.61h-10.81c-0.89,0-1.61,0.72-1.61,1.61v7.58c0,1.41-0.59,2.15-1.07,2.51c-0.28,0.21-0.62,0.32-0.96,0.32
		h-16c-3.58,0-3.3-2.83-3.3-2.83s0-12.59,0-15.42c0-2.83,2.59-2.59,2.59-2.59h18.18c0.89,0,1.61-0.72,1.61-1.61V81.3
		c0-0.89-0.72-1.61-1.61-1.61h-17.71c-2.83,0-3.06-2.59-3.06-2.59l-0.01-18.22c0-0.8,0.65-1.44,1.44-1.44l1.53,0l17.04,0.01
		c0.73,0,1.32,0.59,1.32,1.32v7.89c0,0.89,0.72,1.61,1.61,1.61h11.05c0.89,0,1.61-0.72,1.61-1.61V45.86c0-0.89-0.72-1.61-1.61-1.61
		h-58.63c-0.88,0-1.59,0.7-1.61,1.58L319.47,55.57z M421.9,44.25h-35.06c-0.92,0-1.66,0.71-1.66,1.6v8.02c0,0.88,0.74,1.6,1.66,1.6
		h4.66c0,0,4.13-0.23,5.83,2.1c1.65,2.26,15.85,21.25,16.73,22.47c0.03,0.04,0.05,0.09,0.08,0.13c1.84,2.85,2.18,4.29-0.28,8.8
		c-2.6,4.77-14.18,21.44-14.8,22.29c-0.02,0.03-0.04,0.05-0.06,0.07c-1.25,1.66-3.52,4.4-7.26,4.4h-4.66c-0.92,0-1.66,0.71-1.66,1.6
		v8.49c0,0.88,0.74,1.6,1.66,1.6h34.36c0.92,0,1.66-0.71,1.66-1.6v-9.19c0-0.88-0.74-1.6-1.66-1.6h-2.72c0,0-4.13,0.47-1.7-3.04
		c2.07-2.99,5.73-9.03,6.77-10.75l0.26-0.46c0.82-1.42,2.93-1.46,3.8-0.07l0.3,0.49c1.8,2.75,6.61,10.78,6.61,10.78
		s2.19,3.27-1.46,3.27h-3.2c-0.92,0-1.66,0.71-1.66,1.6v9.19c0,0.88,0.74,1.6,1.66,1.6h34.6c0.92,0,1.66-0.71,1.66-1.6v-8.72
		c0-0.88-0.74-1.6-1.66-1.6h-3.97c-0.12,0-5.02,0.23-7.74-3.74c-3.52-5.15-15.56-23.72-15.56-23.72s-2.19-3.5,0.73-8.18
		c2.74-4.39,14.31-19.74,15.67-21.65c0.09-0.13,0.2-0.24,0.32-0.33c0.76-0.58,3.69-2.65,6.62-2.65h4.17c0.92,0,1.66-0.71,1.66-1.6
		v-8.02c0-0.88-0.74-1.6-1.66-1.6h-34.85c-0.92,0-1.66,0.71-1.66,1.6v7.79c0,0.88,0.74,1.6,1.66,1.6h2.72c0,0,3.78-0.37,1.7,3.5
		c-1.92,3.57-6.32,9.55-6.32,9.55s-1.94,4.44-4.86-0.47c-2.92-4.91-6.08-8.62-6.08-8.62s-2.56-3.74,0.97-3.74h3.83
		c0.93,0,1.68-0.73,1.66-1.63l-0.17-8.02C423.55,44.94,422.81,44.25,421.9,44.25z M94.29,98.24L80.97,52.51l-0.12-0.42
		c-0.84-3.01-5.07-3.11-6.05-0.15l-0.19,0.57c-2.73,7.88-16.36,46.04-16.36,46.04s-2.95,5.76,3.72,5.76s28.11,0,28.11,0
		S96.72,104.3,94.29,98.24z"/>
</g>
</svg>
