<svg width="240" height="44" viewBox="0 0 139 25" fill="#0F5CC0" xmlns="http://www.w3.org/2000/svg"><path d="M7.28571 8.57642C4.97143 7.97642 4.02857 7.54785 4.02857 6.26214C4.02857 4.97642 4.97143 4.29071 6.94286 4.29071C8.22857 4.29071 9.51429 4.71928 10.5429 5.49071H12.0857V2.23357L12 2.14785C10.3714 1.29071 8.57143 0.862137 6.68571 0.947851C2.48571 0.947851 0 3.00499 0 6.605C0 9.69071 1.37143 11.2336 5.14286 12.3479L6 12.605C7.71429 13.1193 9 13.4621 9 15.005C9 16.7193 7.28571 17.1479 5.82857 17.1479C4.2 17.2336 2.65714 16.6336 1.54286 15.5193V15.3479H0V18.7764L0.0857146 18.8621C1.88571 19.8907 3.94286 20.4907 6.08571 20.405C10.7143 20.405 13.2857 18.3479 13.2857 14.5764C13.2857 10.805 11.1429 9.51928 7.28571 8.57642Z"></path><path d="M28.4571 14.2336L26.0571 5.83357H22.8L20.1429 14.3193L17.9143 5.83357H13.8857V7.03357L17.8286 20.1479H21.4286L24.0857 11.7479L26.5714 20.1479H30.2571L34.2857 6.94785V5.83357H30.8571L28.4571 14.2336Z"></path><path d="M38.1429 0.00499494C36.8571 -0.0807193 35.8286 0.947852 35.8286 2.23357C35.8286 3.51928 36.8571 4.46214 38.1429 4.46214C39.3429 4.46214 40.3714 3.51928 40.4571 2.31928C40.4571 2.31928 40.4571 2.31928 40.4571 2.23357C40.3714 0.947852 39.4286 -0.0807193 38.1429 0.00499494Z"></path><path d="M38.5714 5.83357H36V20.1479H40.2V8.57642C40.2 6.34785 40.0286 5.83357 38.5714 5.83357Z"></path><path d="M49.2 15.1764L45.7714 5.83357H41.8286V7.03357L46.9714 20.1479H51.0857L55.9714 6.94785V5.83357H52.3714L49.2 15.1764Z"></path><path d="M63.3429 5.57642C59.1429 5.57642 56.3143 8.57642 56.3143 13.0336C56.3143 17.4907 59.0571 20.3193 63.6 20.3193C65.5714 20.405 67.4571 19.8907 69.1714 18.9479L69.2571 18.8621V16.0336H67.8H67.7143C66.6857 16.805 65.4 17.2336 64.1143 17.2336C61.8 17.2336 60.8571 16.2907 60.6 13.9764H69.6857V13.805C69.6857 13.805 69.6857 13.6336 69.6857 13.5479C69.6857 13.4621 69.6857 12.9479 69.6857 12.605C69.7714 8.06214 67.5429 5.57642 63.3429 5.57642ZM63.3429 8.40499C64.4571 8.40499 65.4857 8.74785 65.6571 11.3193H60.7714C61.1143 8.74785 62.3143 8.40499 63.3429 8.40499Z"></path><path d="M74.2286 1.11928H71.6571V20.1479H75.8571V3.51928C75.8571 1.63357 75.6857 1.11928 74.2286 1.11928Z"></path><path d="M86.8286 5.57642C85.2857 5.57642 83.8286 6.09071 82.6286 7.03357C82.6286 6.34785 82.1143 5.83357 81.4286 5.83357C81.4286 5.83357 81.4286 5.83357 81.3429 5.83357H78.5143V24.5193H82.7143V19.205C83.7429 19.805 84.8571 20.1479 86.0571 20.0621C87.5143 20.0621 92.4 19.5479 92.4 12.6907C92.4 7.46214 89.4857 5.57642 86.8286 5.57642ZM82.8 9.51928C83.5714 9.17642 84.4286 8.91928 85.2857 8.91928C86.4857 8.91928 88.1143 9.34785 88.1143 12.9479C88.1143 16.5479 86.4857 16.9764 85.1143 16.9764C84.2571 16.9764 83.4857 16.805 82.8 16.2907C82.7143 16.205 82.7143 9.51928 82.8 9.51928Z"></path><path d="M100.8 5.57642C96.5143 5.57642 93.5143 8.66214 93.5143 13.0336C93.5143 17.0621 96.7714 20.3193 100.8 20.3193C104.829 20.3193 108.086 17.0621 108.086 13.0336C108.171 8.66214 105.171 5.57642 100.8 5.57642ZM100.8 17.2336C98.8286 17.2336 97.8 15.7764 97.8 13.1193C97.8 10.4621 98.9143 8.74785 100.8 8.74785C102.686 8.74785 103.8 10.3764 103.8 13.1193C103.8 15.8621 102.771 17.2336 100.8 17.2336Z"></path><path d="M112.543 1.11928H109.971V20.1479H114.171V3.51928C114.257 1.63357 114.086 1.11928 112.543 1.11928Z"></path><path d="M123.171 5.57642C118.971 5.57642 116.143 8.57642 116.143 13.0336C116.143 17.4907 118.886 20.3193 123.429 20.3193C125.4 20.405 127.286 19.8907 129 18.9479L129.086 18.8621V16.0336H127.629H127.543C126.514 16.805 125.229 17.2336 123.943 17.2336C121.714 17.2336 120.6 16.2907 120.429 13.9764H129.514V13.805C129.514 13.805 129.514 13.6336 129.514 13.5479C129.514 13.4621 129.514 12.9479 129.514 12.605C129.6 8.06214 127.371 5.57642 123.171 5.57642ZM123.171 8.40499C124.286 8.40499 125.314 8.74785 125.486 11.3193H120.6C120.857 8.74785 122.143 8.40499 123.171 8.40499Z"></path><path d="M131.486 4.46214V1.54785H130.457V0.776423H133.629V1.54785H132.6V4.37642H131.486V4.46214ZM134.143 4.46214V0.776423H135.771L136.371 2.74785L136.971 0.776423H138.6V4.46214H137.571V1.63357L136.714 4.37642H135.943L135.086 1.63357V4.37642H134.143V4.46214Z"></path></svg>
