<?xml version="1.0" encoding="UTF-8" standalone="no"?>
<!-- Created with Inkscape (http://www.inkscape.org/) -->
<svg
   xmlns:svg="http://www.w3.org/2000/svg"
   xmlns="http://www.w3.org/2000/svg"
   version="1.0"
   width="69.063004"
   height="22.402"
   viewBox="0 0 69.063 22.402"
   id="Layer_1"
   xml:space="preserve"><defs
   id="defs14" />
<g
   transform="matrix(0.9433317,0,0,0.9433317,1.9043107,0.5078162)"
   id="g3">
	<path
   d="M 0.827,4.01 L 5.177,4.01 L 5.886,1.607 L 11.81,0 L 10.592,4.01 L 15.172,4.01 L 14.352,6.789 L 9.771,6.789 C 9.771,6.789 8.168,12.044 7.91,12.912 C 7.706,13.597 7.992,14.088 8.596,14.088 L 12.143,14.088 L 11.298,16.88 L 5.721,16.88 C 3.364,16.88 1.722,15.359 2.488,12.895 C 3.136,10.816 4.337,6.79 4.337,6.79 L 0,6.79 L 0.827,4.01"
   id="path5" />
	<path
   d="M 17.188,4.01 L 22.618,4.01 C 22.618,4.01 20.116,12.282 19.939,12.869 C 19.7,13.652 20.047,14.088 20.627,14.088 L 24.478,14.088 L 27.532,4.01 L 32.913,4.01 L 27.348,22.403 L 21.966,22.403 L 23.623,16.881 L 17.74,16.881 C 15.384,16.881 13.741,15.36 14.508,12.897 C 15.155,10.815 17.188,4.01 17.188,4.01"
   id="path7" />
	<path
   d="M 63.62,7.697 C 63.801,7.092 63.517,6.788 63.074,6.788 L 58.897,6.788 C 58.386,6.788 58.171,6.962 57.989,7.567 C 57.947,7.704 56.363,12.912 56.284,13.178 C 56.101,13.784 56.387,14.087 56.827,14.087 L 61.006,14.087 C 61.516,14.087 61.733,13.913 61.914,13.308 C 61.961,13.153 63.564,7.882 63.62,7.697 M 66.928,14.429 C 66.483,15.917 65.508,16.88 63.721,16.88 L 54.253,16.88 C 51.898,16.88 50.309,15.374 51.022,12.896 C 51.617,10.824 53.022,6.317 53.022,6.317 C 53.539,4.726 54.725,4.01 56.037,4.01 C 56.037,4.01 64.362,4.009 65.641,4.009 C 67.999,4.009 69.639,5.532 68.873,7.994 C 68.227,10.075 66.928,14.429 66.928,14.429"
   id="path9" />
	<path
   d="M 43.712,12.035 C 43.497,12.741 43.339,13.261 43.323,13.308 C 43.144,13.913 42.926,14.087 42.417,14.087 L 38.521,14.087 C 38.081,14.087 37.794,13.784 37.976,13.178 C 38.056,12.911 39.64,7.703 39.681,7.567 C 39.863,6.962 40.079,6.788 40.589,6.788 L 44.485,6.788 C 44.925,6.788 45.212,7.092 45.03,7.697 C 45.013,7.749 44.878,8.196 44.69,8.818 L 50.028,8.818 C 50.121,8.518 50.207,8.241 50.283,7.994 C 51.051,5.532 49.408,4.009 47.052,4.009 C 45.771,4.009 37.728,4.01 37.728,4.01 C 36.417,4.01 35.23,4.726 34.713,6.317 C 34.713,6.317 33.31,10.824 32.714,12.896 C 32.001,15.375 33.589,16.88 35.945,16.88 L 45.131,16.88 C 46.919,16.88 47.892,15.917 48.338,14.429 C 48.338,14.429 48.654,13.363 49.056,12.035 L 43.712,12.035"
   id="path11" />
</g>
</svg>