<svg id="Layer_1" xmlns="http://www.w3.org/2000/svg" viewBox="0 0 686 155"><style>.st0{fill:#2a3238}</style><path class="st0" d="M247.7 35.2L228.9 61l-18.3-25.8h-26.1L216.1 78l-31.6 42.7h26.3l18.1-24.9 18 24.9h26.3l-31.1-42.2 31.6-43.3zM341.5 52.2v-17h-23.8v-31h-22.5v31h-15.9v17h15.9v41.7c0 17.5 9.4 26.7 25.8 26.7h20.6v-17h-9.3c-11.5 0-14.6-5-14.6-16.9V52.2h23.8zM412.6 71V56.7c0-15.9-6.2-21.6-24-21.6h-37.9v85.5h22.5V51.5h7.9c7.3 0 9.9.8 9.9 8.4v11l21.6.1zM469.2 35.2H423v17.7h37.6c14.3 0 20.4 2.9 20.4 13.8v2.1h-29.7c-23.8 0-34 7.5-34 27.2 0 15.7 9.4 24.6 26.4 24.6h60.6V67.1c.1-21-11.7-31.9-35.1-31.9zm12 68.3H453c-8.3 0-12.3-1-12.3-8.1 0-7.6 4.4-9.6 13.9-9.6h26.6v17.7zM515.8 4.3h23.5v116.4h-23.5zM550.5 4.3h23.7v21.3h-23.7zM550.5 35.3h23.7v85.5h-23.7zM621.5 53.1h39.9V35.3h-48.5c-20.6 0-30.2 8.4-30.2 26.7 0 19.9 8.8 24.2 29.5 24.2h19.4c8.1 0 12.2 2.4 12.2 8.4s-4.1 8.3-12.2 8.3h-47.5v17.8h58.2c13.5 0 23.4-10.7 23.4-26.7 0-16.4-9.9-25.5-28.7-25.5h-20.4c-7.3 0-10.7-2.3-10.7-7.6 0-7.1 5.4-7.8 15.6-7.8zM103.1 134.5l56.6-56.6-56.6-56.6c9.5 16.7 15 36 15 56.6s-5.5 39.9-15 56.6z"/><path class="st0" d="M108.3 77.9c0-28.8-11.7-55-30.7-73.9l-74 73.9 74 74c18.9-19 30.7-45.2 30.7-74zM675.7 43.6c1-.4 1.7-1.1 1.7-2 0-.8-.3-1.4-.8-1.8-.6-.3-1.3-.6-2.8-.6-1.3 0-2.4.1-3.1.2v8.1h1.9v-3.2h.9c1 0 1.5.4 1.7 1.3.3.9.4 1.7.6 2h2c-.2-.3-.3-.8-.6-2-.2-1.1-.7-1.7-1.5-2zm-2.2-.6h-.9v-2.3c.2 0 .5-.1 1-.1 1.2 0 1.7.5 1.7 1.2.1.9-.7 1.2-1.8 1.2z"/><path class="st0" d="M682.1 43.4c0-4.5-3.6-8.1-8.3-8.1-4.6 0-8.3 3.6-8.3 8.1 0 4.6 3.7 8.2 8.3 8.2 4.7-.1 8.3-3.6 8.3-8.2zm-8.2 6.4c-3.6 0-6.3-2.9-6.3-6.4s2.7-6.4 6.2-6.4c3.6 0 6.2 2.9 6.2 6.5.1 3.5-2.5 6.3-6.1 6.3z"/></svg>