<?xml version="1.0" encoding="UTF-8" standalone="no"?>
<svg
   xmlns:dc="http://purl.org/dc/elements/1.1/"
   xmlns:cc="http://creativecommons.org/ns#"
   xmlns:rdf="http://www.w3.org/1999/02/22-rdf-syntax-ns#"
   xmlns:svg="http://www.w3.org/2000/svg"
   xmlns="http://www.w3.org/2000/svg"
   xmlns:sodipodi="http://sodipodi.sourceforge.net/DTD/sodipodi-0.dtd"
   xmlns:inkscape="http://www.inkscape.org/namespaces/inkscape"
   width="454pt"
   height="157pt"
   viewBox="0 0 454 157"
   version="1.1"
   id="svg2920"
   inkscape:version="0.47 r22583"
   sodipodi:docname="WIKA_Logo.svg">
  <metadata
     id="metadata2938">
    <rdf:RDF>
      <cc:Work
         rdf:about="">
        <dc:format>image/svg+xml</dc:format>
        <dc:type
           rdf:resource="http://purl.org/dc/dcmitype/StillImage" />
        <dc:title />
      </cc:Work>
    </rdf:RDF>
  </metadata>
  <defs
     id="defs2936">
    <inkscape:perspective
       sodipodi:type="inkscape:persp3d"
       inkscape:vp_x="0 : 98.125 : 1"
       inkscape:vp_y="0 : 1000 : 0"
       inkscape:vp_z="567.5 : 98.125 : 1"
       inkscape:persp3d-origin="283.75 : 65.416667 : 1"
       id="perspective2940" />
  </defs>
  <sodipodi:namedview
     pagecolor="#ffffff"
     bordercolor="#666666"
     borderopacity="1"
     objecttolerance="10"
     gridtolerance="10"
     guidetolerance="10"
     inkscape:pageopacity="0"
     inkscape:pageshadow="2"
     inkscape:window-width="1920"
     inkscape:window-height="1028"
     id="namedview2934"
     showgrid="false"
     inkscape:zoom="1.7934053"
     inkscape:cx="421.12864"
     inkscape:cy="129.17653"
     inkscape:window-x="-8"
     inkscape:window-y="-8"
     inkscape:window-maximized="1"
     inkscape:current-layer="svg2920"
     showguides="true"
     inkscape:guide-bbox="true">
    <sodipodi:guide
       orientation="0,1"
       position="250.6348,147.72218"
       id="guide2816" />
    <sodipodi:guide
       orientation="0,1"
       position="258.83234,47.213718"
       id="guide2818" />
    <sodipodi:guide
       orientation="1,0"
       position="421.25605,50.454269"
       id="guide2820" />
    <sodipodi:guide
       orientation="1,0"
       position="463.73409,107.21532"
       id="guide2822" />
  </sodipodi:namedview>
  <path
     fill="#00519e"
     d=" M 2.39 155.28 C 2.41 104.11 2.32 52.94 2.43 1.77 C 140.35 1.83 278.27 1.78 416.19 1.79 C 416.19 40.97 416.19 80.15 416.19 119.33 C 408.67 119.32 401.16 119.34 393.64 119.32 C 393.65 87.14 393.64 54.96 393.64 22.78 C 270.73 22.76 147.81 22.73 24.90 22.80 C 24.93 60.11 24.82 97.41 24.95 134.72 C 160.16 134.91 295.37 134.69 430.58 134.83 C 430.64 90.59 430.56 46.35 430.62 2.11 C 437.91 2.20 445.21 2.16 452.50 2.14 C 452.52 53.19 452.51 104.23 452.51 155.28 C 302.47 155.28 152.43 155.27 2.39 155.28 Z"
     id="path2922" />
  <path
     fill="#00519e"
     d="m 36.630254,38.822256 c 8,-0.07 16.069746,0.2 24.069746,0 C 65.22,55.302256 68.72,72.05 73.01,88.6 79.23,72.47 83.449746,55.562256 87.649746,38.822256 c 7.359238,-0.07774 14.081264,0 21.440504,4e-6 4.15,16.51 8.64975,33.207744 12.99975,49.667744 4.82,-16.44 9,-33.07 13.56,-49.59 7.55,-0.02 15.1,-0.01 22.65,0 -7.66,26.81 -15.15,53.66 -22.86,80.449996 -7.39,-0.05 -14.78,-0.03 -22.18,-0.01 C 107.05,103.84 103,87.61 98.12,71.67 93.5,87.57 88.88,103.47 84.15,119.34 76.66,119.32 69.17,119.3 61.69,119.35 53.3,92.55 44.990254,65.632256 36.630254,38.822256 z"
     id="path2924"
     sodipodi:nodetypes="cccccccccccccc" />
  <path
     fill="#00519e"
     d=" M 171.32 38.89 C 178.12 38.89 184.92 38.89 191.72 38.89 C 191.75 65.70 191.71 92.51 191.74 119.32 C 184.93 119.33 178.12 119.32 171.31 119.33 C 171.31 92.52 171.28 65.71 171.32 38.89 Z"
     id="path2926" />
  <path
     d=" M 213.33 38.89 C 220.04 38.89 226.75 38.89 233.46 38.90 C 233.63 48.75 233.13 58.63 233.72 68.47 C 243.28 58.84 252.40 48.77 261.71 38.89 C 270.77 38.90 279.83 38.88 288.89 38.90 C 278.13 49.55 267.24 60.06 256.38 70.60 C 268.19 86.80 279.82 103.13 291.63 119.32 C 283.28 119.34 274.92 119.31 266.57 119.34 C 258.73 108.35 250.95 97.30 243.02 86.37 C 239.85 89.45 236.63 92.48 233.46 95.55 C 233.47 103.48 233.46 111.40 233.47 119.33 C 226.75 119.33 220.04 119.32 213.33 119.34 C 213.32 92.52 213.31 65.71 213.33 38.89 Z"
     id="path2928"
     fill="#00519e" />
  <path
     d="M 439.4375,48.5625 C 427.525,48.7 415.63125,48.42777 403.71875,48.52782 c -12,33.525 -24.2,67.09718 -36.25,100.59718 9.825,0.1 19.64375,-0.0437 29.46875,0.0937 2.525,-7.475 4.7,-15.075 7.1875,-22.5625 11.825,0 23.6625,0.0687 35.5,-0.0312 1.975,7.675 4.75625,15.09375 7.28125,22.59375 10.3125,-0.15 20.625,0.025 30.9375,-0.125 -1.6625,-5.4625 -3.89375,-10.725 -5.90625,-16.0625 C 461.05,104.89375 450.475,76.6375 439.4375,48.5625 z m -18.15625,25.125 c 3.96331,10.739056 7.91777,21.658464 11.4754,32.59809 -7.35053,0 -15.08165,0.23316 -22.13165,0.0582 3.1875,-11 6.68217,-21.655461 10.65625,-32.65625 l 0,-4e-5 z"
     id="path2930"
     style="fill:#00519e;fill-opacity:1"
     transform="scale(0.8,0.8)"
     sodipodi:nodetypes="ccccccccccccccc" />
</svg>
